<svg width="120" height="32" viewBox="0 0 120 32" fill="none" xmlns="http://www.w3.org/2000/svg">
<path d="M1.368 20.5V12.1H2.1L5.94 18.652H5.556L9.36 12.1H10.092V20.5H9.24V13.432H9.444L5.94 19.432H5.52L1.992 13.432H2.22V20.5H1.368ZM16.5969 20.5V19.108L16.5609 18.88V16.552C16.5609 16.016 16.4089 15.604 16.1049 15.316C15.8089 15.028 15.3649 14.884 14.7729 14.884C14.3649 14.884 13.9769 14.952 13.6089 15.088C13.2409 15.224 12.9289 15.404 12.6729 15.628L12.2889 14.992C12.6089 14.72 12.9929 14.512 13.4409 14.368C13.8889 14.216 14.3609 14.14 14.8569 14.14C15.6729 14.14 16.3009 14.344 16.7409 14.752C17.1889 15.152 17.4129 15.764 17.4129 16.588V20.5H16.5969ZM14.4249 20.56C13.9529 20.56 13.5409 20.484 13.1889 20.332C12.8449 20.172 12.5809 19.956 12.3969 19.684C12.2129 19.404 12.1209 19.084 12.1209 18.724C12.1209 18.396 12.1969 18.1 12.3489 17.836C12.5089 17.564 12.7649 17.348 13.1169 17.188C13.4769 17.02 13.9569 16.936 14.5569 16.936H16.7289V17.572H14.5809C13.9729 17.572 13.5489 17.68 13.3089 17.896C13.0769 18.112 12.9609 18.38 12.9609 18.7C12.9609 19.06 13.1009 19.348 13.3809 19.564C13.6609 19.78 14.0529 19.888 14.5569 19.888C15.0369 19.888 15.4489 19.78 15.7929 19.564C16.1449 19.34 16.4009 19.02 16.5609 18.604L16.7529 19.192C16.5929 19.608 16.3129 19.94 15.9129 20.188C15.5209 20.436 15.0249 20.56 14.4249 20.56ZM22.2351 20.56C21.6351 20.56 21.0951 20.424 20.6151 20.152C20.1431 19.88 19.7711 19.504 19.4991 19.024C19.2271 18.536 19.0911 17.976 19.0911 17.344C19.0911 16.704 19.2271 16.144 19.4991 15.664C19.7711 15.184 20.1431 14.812 20.6151 14.548C21.0951 14.276 21.6351 14.14 22.2351 14.14C22.7871 14.14 23.2791 14.264 23.7111 14.512C24.1511 14.76 24.4991 15.124 24.7551 15.604C25.0191 16.076 25.1511 16.656 25.1511 17.344C25.1511 18.024 25.0231 18.604 24.7671 19.084C24.5111 19.564 24.1631 19.932 23.7231 20.188C23.2911 20.436 22.7951 20.56 22.2351 20.56ZM22.2951 19.804C22.7431 19.804 23.1431 19.704 23.4951 19.504C23.8551 19.296 24.1351 19.008 24.3351 18.64C24.5431 18.264 24.6471 17.832 24.6471 17.344C24.6471 16.848 24.5431 16.416 24.3351 16.048C24.1351 15.68 23.8551 15.396 23.4951 15.196C23.1431 14.988 22.7431 14.884 22.2951 14.884C21.8551 14.884 21.4591 14.988 21.1071 15.196C20.7551 15.396 20.4751 15.68 20.2671 16.048C20.0591 16.416 19.9551 16.848 19.9551 17.344C19.9551 17.832 20.0591 18.264 20.2671 18.64C20.4751 19.008 20.7551 19.296 21.1071 19.504C21.4591 19.704 21.8551 19.804 22.2951 19.804ZM24.6711 20.5V18.604L24.7551 17.332L24.6351 16.06V11.596H25.4871V20.5H24.6711ZM30.5359 20.56C29.8799 20.56 29.3039 20.424 28.8079 20.152C28.3119 19.872 27.9239 19.492 27.6439 19.012C27.3639 18.524 27.2239 17.968 27.2239 17.344C27.2239 16.72 27.3559 16.168 27.6199 15.688C27.8919 15.208 28.2599 14.832 28.7239 14.56C29.1959 14.28 29.7239 14.14 30.3079 14.14C30.8999 14.14 31.4239 14.276 31.8799 14.548C32.3439 14.812 32.7079 15.188 32.9719 15.676C33.2359 16.156 33.3679 16.712 33.3679 17.344C33.3679 17.384 33.3639 17.428 33.3559 17.476C33.3559 17.516 33.3559 17.56 33.3559 17.608H27.8719V16.972H32.8999L32.5639 17.224C32.5639 16.768 32.4639 16.364 32.2639 16.012C32.0719 15.652 31.8079 15.372 31.4719 15.172C31.1359 14.972 30.7479 14.872 30.3079 14.872C29.8759 14.872 29.4879 14.972 29.1439 15.172C28.7999 15.372 28.5319 15.652 28.3399 16.012C28.1479 16.372 28.0519 16.784 28.0519 17.248V17.38C28.0519 17.86 28.1559 18.284 28.3639 18.652C28.5799 19.012 28.8759 19.296 29.2519 19.504C29.6359 19.704 30.0719 19.804 30.5599 19.804C30.9439 19.804 31.2999 19.736 31.6279 19.6C31.9639 19.464 32.2519 19.256 32.4919 18.976L32.9719 19.528C32.6919 19.864 32.3399 20.12 31.9159 20.296C31.4999 20.472 31.0399 20.56 30.5359 20.56ZM39.5267 20.5L37.1507 14.2H37.9667L40.1267 20.044H39.7547L41.9747 14.2H42.7067L44.9027 20.044H44.5307L46.7267 14.2H47.5067L45.1187 20.5H44.3147L42.2027 15.004H42.4547L40.3307 20.5H39.5267ZM48.7896 20.5V14.2H49.6416V20.5H48.7896ZM49.2216 12.808C49.0456 12.808 48.8976 12.748 48.7776 12.628C48.6576 12.508 48.5976 12.364 48.5976 12.196C48.5976 12.028 48.6576 11.888 48.7776 11.776C48.8976 11.656 49.0456 11.596 49.2216 11.596C49.3976 11.596 49.5456 11.652 49.6656 11.764C49.7856 11.876 49.8456 12.016 49.8456 12.184C49.8456 12.36 49.7856 12.508 49.6656 12.628C49.5536 12.748 49.4056 12.808 49.2216 12.808ZM54.0042 20.56C53.4122 20.56 52.9562 20.4 52.6362 20.08C52.3162 19.76 52.1562 19.308 52.1562 18.724V12.808H53.0082V18.676C53.0082 19.044 53.1002 19.328 53.2842 19.528C53.4762 19.728 53.7482 19.828 54.1002 19.828C54.4762 19.828 54.7882 19.72 55.0362 19.504L55.3362 20.116C55.1682 20.268 54.9642 20.38 54.7242 20.452C54.4922 20.524 54.2522 20.56 54.0042 20.56ZM51.0282 14.908V14.2H54.9282V14.908H51.0282ZM60.1032 14.14C60.6152 14.14 61.0632 14.24 61.4472 14.44C61.8392 14.632 62.1432 14.928 62.3592 15.328C62.5832 15.728 62.6952 16.232 62.6952 16.84V20.5H61.8432V16.924C61.8432 16.26 61.6752 15.76 61.3392 15.424C61.0112 15.08 60.5472 14.908 59.9472 14.908C59.4992 14.908 59.1072 15 58.7712 15.184C58.4432 15.36 58.1872 15.62 58.0032 15.964C57.8272 16.3 57.7392 16.708 57.7392 17.188V20.5H56.8872V11.596H57.7392V15.928L57.5712 15.604C57.7712 15.148 58.0912 14.792 58.5312 14.536C58.9712 14.272 59.4952 14.14 60.1032 14.14ZM66.9492 21.34H78.9492V9.34H66.9492V21.34Z" fill="white"/>
<path d="M94.375 21H92.1875V17.0781H88.9375V18.2188L87.5781 19.0469C87.0781 18.6927 86.638 18.2474 86.2578 17.7109C85.8776 17.1745 85.5859 16.5859 85.3828 15.9453L86.8594 15.3516V12.3438C86.8594 12.0156 86.8021 11.7656 86.6875 11.5938C86.5781 11.4219 86.388 11.3359 86.1172 11.3359C85.9245 11.3359 85.7682 11.3958 85.6484 11.5156C85.5339 11.6302 85.4766 11.7839 85.4766 11.9766C85.4766 12.263 85.638 12.5625 85.9609 12.875L84.7891 13.8828C84.3932 13.6484 84.0833 13.349 83.8594 12.9844C83.6406 12.6198 83.5312 12.2292 83.5312 11.8125C83.5312 11.1823 83.7604 10.6615 84.2188 10.25C84.6771 9.83333 85.2786 9.625 86.0234 9.625C86.9609 9.625 87.6797 9.89583 88.1797 10.4375C88.6849 10.974 88.9375 11.7318 88.9375 12.7109V15.2891H92.1875V11.6562H90.5078L90.25 9.94531H96.1172L96.3594 11.6562H94.375V21ZM99.7578 21H97.5703V11.6562H95.8906L95.6328 9.94531H101.508L101.742 11.6562H99.7578V21ZM106.562 14.8047C106.562 15.5651 106.427 16.1406 106.156 16.5312C105.891 16.9167 105.422 17.1432 104.75 17.2109L107.422 20.1172L105.82 21.4453L101.891 15.9141L102.766 14.5547C103.276 14.6068 103.81 14.7552 104.367 15C104.388 14.8698 104.398 14.6406 104.398 14.3125V11.6562H101.164L100.93 9.94531H108.492L108.719 11.6562H106.562V14.8047ZM117.289 13.6719V21H115.102V15.3828H112.828C112.328 15.3828 111.945 15.5286 111.68 15.8203C111.419 16.1068 111.289 16.4688 111.289 16.9062C111.289 17.3854 111.398 17.9427 111.617 18.5781C111.836 19.2135 112.138 19.888 112.523 20.6016L111.102 21.4141C110.461 20.5286 109.953 19.6536 109.578 18.7891C109.208 17.9245 109.023 17.1302 109.023 16.4062C109.023 15.5 109.294 14.7995 109.836 14.3047C110.383 13.8099 111.211 13.5625 112.32 13.5625H115.102V11.6562H107.773L107.5 9.94531H119.039L119.273 11.6562H117.289V13.5625H117.312L117.289 13.6719Z" fill="#F70A0A"/>
</svg>
