<svg width="101" height="24" viewBox="0 0 101 24" fill="none" xmlns="http://www.w3.org/2000/svg">
<g clip-path="url(#clip0_6_165)">
<path d="M96.4755 2.02542V0.202637H91.704V2.02542C91.704 2.12669 91.8034 2.32922 91.9028 2.32922L93.9903 3.34188C94.0897 3.44314 94.1891 3.44314 94.2885 3.34188L96.3761 2.32922C96.3761 2.32922 96.4755 2.22795 96.4755 2.02542Z" fill="black"/>
<path d="M90.8093 22.2786C90.1135 20.8609 90.4117 19.1393 91.5052 18.0254C91.704 17.8229 91.9028 17.6204 92.201 17.5191C92.3004 17.4178 92.3998 17.3166 92.3998 17.2153V5.46846C92.3998 5.36719 92.3004 5.26593 92.201 5.16466C90.5111 4.152 89.9146 1.92416 90.9087 0.202637H89.4176C88.2247 0.202637 87.3301 1.11403 87.3301 2.32922V21.5697C87.3301 22.7849 88.2247 23.6963 89.4176 23.6963H92.1016C91.5052 23.3925 91.1075 22.8862 90.8093 22.2786Z" fill="black"/>
<path d="M98.6625 0.202637H97.1714C98.1655 1.92416 97.569 4.152 95.8791 5.16466C95.7797 5.26593 95.6803 5.36719 95.6803 5.46846V17.2153C95.6803 17.3166 95.7797 17.4178 95.8791 17.5191C97.569 18.5318 98.1655 20.7596 97.1714 22.5824C96.8732 23.0887 96.4756 23.4938 96.0779 23.7976H98.6625C99.8554 23.7976 100.75 22.8862 100.75 21.671V2.32922C100.75 1.21529 99.8554 0.202637 98.6625 0.202637Z" fill="black"/>
<path d="M4.52448 16.2025C4.7233 16.3038 4.92211 16.5063 5.22033 16.8101C5.51855 17.1139 5.81677 17.3165 6.11499 17.519C6.61202 17.8228 7.10905 18.1266 7.70549 18.3291C8.20252 18.5316 8.79896 18.6329 9.296 18.6329C9.79303 18.6329 10.1907 18.5316 10.5883 18.4304C10.8865 18.3291 11.1847 18.1266 11.3835 17.9241C11.5823 17.7215 11.7812 17.519 11.7812 17.2152C11.8806 16.9114 11.8806 16.7089 11.8806 16.4051C11.8806 16.1013 11.7812 15.7975 11.4829 15.4937C11.1847 15.1899 10.8865 14.9873 10.5883 14.7848C10.1907 14.5823 9.89244 14.3797 9.49481 14.2785C9.09718 14.1772 8.79896 14.0759 8.50074 13.8734C7.40727 13.4684 6.3138 12.962 5.22033 12.4557C4.42508 12.0506 3.62982 11.443 2.93398 10.7342C2.33754 10.1266 1.8405 9.41772 1.54229 8.70886C1.44288 8.10127 1.24407 7.29114 1.24407 6.48101C1.24407 5.46835 1.44288 4.65823 1.8405 3.74684C2.23813 2.93671 2.83457 2.22785 3.53042 1.72152C4.32567 1.11392 5.22033 0.708861 6.11499 0.405063C7.20846 0.101266 8.30193 0 9.3954 0C10.2901 0 11.1847 0.101266 12.0794 0.303797C12.974 0.506329 13.7693 0.911392 14.5645 1.31646C14.9622 1.51899 15.2604 1.72152 15.5586 1.92405C15.8568 2.12658 16.155 2.32911 16.3539 2.53165C16.5527 2.73418 16.7515 2.93671 16.9503 3.13924C17.0497 3.24051 17.1491 3.44304 17.1491 3.64557C17.1491 3.74684 17.1491 3.94937 17.0497 4.05063C16.9503 4.1519 16.8509 4.35443 16.7515 4.4557L14.3657 6.98734C14.2663 7.18987 14.0675 7.18987 13.8687 7.29114C13.7693 7.29114 13.5705 7.29114 13.4711 7.18987C13.4711 7.08861 13.3717 6.98734 13.1729 6.88608L12.974 6.78481C12.7752 6.58228 12.5764 6.37975 12.2782 6.27848C11.98 6.07595 11.7812 5.87342 11.4829 5.77215C11.1847 5.56962 10.8865 5.46835 10.5883 5.36709C10.2901 5.26582 9.99184 5.26582 9.59422 5.26582C9.296 5.26582 8.99778 5.26582 8.60015 5.36709C8.40134 5.26582 8.20252 5.36709 7.9043 5.46835C7.70549 5.67089 7.50668 5.77215 7.40727 5.97468C7.10905 6.48101 7.10905 6.98734 7.40727 7.49367C7.60608 7.79747 7.8049 8 8.10312 8.10127C8.40134 8.3038 8.79896 8.50633 9.19659 8.6076C9.49481 8.81013 10.0912 9.01266 10.5883 9.11392C11.6818 9.51899 12.6758 9.82279 13.5705 10.2278C14.4651 10.6329 15.2604 11.038 15.9562 11.6456C16.6521 12.1519 17.1491 12.8608 17.5467 13.5696C17.9444 14.481 18.1432 15.3924 18.1432 16.3038C18.1432 17.4177 17.9444 18.4304 17.4473 19.443C16.9503 20.3544 16.3539 21.1646 15.5586 21.8734C14.6639 22.5823 13.7693 23.0886 12.6758 23.3924C11.5823 23.7975 10.3895 23.8987 9.19659 23.8987C8.00371 23.8987 6.81083 23.6962 5.71736 23.2911C4.62389 22.8861 3.53042 22.2785 2.53635 21.5696C2.13872 21.2658 1.8405 20.962 1.44288 20.6582C1.14466 20.3544 0.945846 20.1519 0.747033 19.9494L0.647626 19.8481C0.349407 19.6456 0.25 19.443 0.25 19.3418C0.25 19.2405 0.349407 18.9367 0.647626 18.7342L3.2322 16.1013C3.43101 16 3.53042 15.8987 3.72923 15.8987C3.82864 15.8987 3.92804 15.8987 4.02745 16C4.22626 16 4.32567 16.1013 4.52448 16.2025Z" fill="black"/>
<path d="M21.8212 1.21521C21.8212 1.01268 21.9206 0.810145 22.02 0.708879C22.1194 0.607613 22.3182 0.506348 22.517 0.506348H37.8256C38.0244 0.506348 38.2232 0.607613 38.3227 0.708879C38.4221 0.810145 38.5215 1.11394 38.5215 1.21521V5.06331C38.5215 5.26584 38.4221 5.46837 38.3227 5.56964C38.2232 5.77217 38.0244 5.77217 37.8256 5.77217H27.885V9.62027H35.6387C35.8375 9.62027 36.0363 9.62027 36.1357 9.72154C36.2351 9.8228 36.3345 10.0253 36.3345 10.2279V13.5696C36.3345 13.7722 36.2351 13.8734 36.1357 13.9747C36.0363 14.076 35.8375 14.1772 35.6387 14.1772H27.885V18.2279H38.2232C38.7203 18.2279 38.9191 18.4304 38.9191 18.9367V22.8861C38.9191 22.9874 38.8197 23.0886 38.8197 23.1899C38.8197 23.4937 38.6209 23.5949 38.2232 23.5949H22.517C22.3182 23.5949 22.1194 23.4937 22.02 23.3924C21.9206 23.2912 21.8212 23.0886 21.8212 22.8861V1.21521Z" fill="black"/>
<path d="M42.6965 1.21521C42.6965 1.01268 42.7959 0.810145 42.8953 0.708879C42.9948 0.607613 43.1936 0.506348 43.3924 0.506348H53.333C54.3271 0.506348 55.3212 0.708879 56.3152 1.11394C57.2099 1.51901 58.0051 2.02534 58.701 2.7342C59.3968 3.44306 59.8939 4.25318 60.2915 5.16458C60.6891 6.07597 60.8879 7.08863 60.8879 8.10128C60.8879 8.81015 60.7885 9.41774 60.5897 10.1266C60.1921 11.3418 59.4962 12.557 58.6016 13.4684C58.1046 13.8734 57.6075 14.2785 57.1105 14.6836L61.0868 22.2785C61.1862 22.3798 61.2856 22.5823 61.385 22.7848C61.4844 22.9874 61.5838 23.0886 61.5838 23.2912C61.5838 23.3924 61.4844 23.595 61.385 23.6962C61.2856 23.7975 61.0868 23.7975 60.9873 23.7975H55.7188C55.52 23.7975 55.4206 23.6962 55.2218 23.595C55.1224 23.4937 55.023 23.3924 54.9235 23.1899L51.1461 16H48.6609V23.0886C48.6609 23.4937 48.4621 23.7975 47.9651 23.7975H43.3924C43.1936 23.7975 42.9948 23.6962 42.8953 23.595C42.7959 23.4937 42.6965 23.2912 42.6965 23.0886V1.21521ZM54.7247 8.20255C54.7247 7.89875 54.6253 7.59495 54.5259 7.29116C54.4265 6.98736 54.2277 6.68356 54.0289 6.37977C53.9295 6.07597 53.6313 5.87344 53.333 5.6709C53.0348 5.46837 52.7366 5.36711 52.339 5.36711L51.5437 5.26584C51.3449 5.26584 51.0467 5.26584 50.7485 5.26584H48.6609V11.038H51.4443C51.6431 11.038 51.8419 11.038 51.9413 11.038C52.0408 11.038 52.2396 11.038 52.4384 10.9367C52.836 10.9367 53.1342 10.8355 53.4324 10.6329C53.7307 10.4304 53.9295 10.2279 54.1283 10.0253C54.3271 9.72154 54.5259 9.51901 54.6253 9.11394C54.7247 8.81015 54.7247 8.50635 54.7247 8.20255Z" fill="black"/>
<path d="M70.6298 23.3925C70.5304 23.1899 70.431 22.9874 70.3316 22.7849C70.2321 22.5823 70.1327 22.3798 70.0333 22.1773L62.0808 1.21526C62.0808 1.114 62.0808 1.114 62.0808 1.114V1.01273C62.0808 0.708932 62.2796 0.607666 62.6772 0.607666H67.6476C68.0452 0.607666 68.3434 0.810198 68.4428 1.21526L73.1149 15.4937C73.5126 14.2786 73.9102 13.1646 74.3078 11.9494C74.7054 10.7342 75.1031 9.62032 75.4013 8.40513C75.7989 7.18994 76.1965 6.07602 76.4948 4.86083C76.793 3.64564 77.29 2.53172 77.6876 1.31653C77.787 0.911463 78.1847 0.708932 78.5823 0.708932H83.4532C83.652 0.708932 83.8508 0.708932 83.9503 0.810198C84.0497 0.911463 84.1491 1.01273 84.0497 1.21526C84.0497 1.31653 84.0497 1.31653 84.0497 1.41779V1.51906L76.0971 22.5823C75.9977 22.6836 75.9977 22.8861 75.8983 23.0887C75.7989 23.2912 75.6995 23.3925 75.6995 23.595C75.6001 23.6963 75.5007 23.8988 75.4013 24.0001C75.3019 24.1013 75.1031 24.2026 75.0037 24.2026H71.2262C70.928 23.7975 70.7292 23.595 70.6298 23.3925Z" fill="black"/>
<path d="M95.6803 21.2658L94.5868 22.481C94.4874 22.5823 94.388 22.5823 94.2886 22.5823L92.7975 22.1772C92.6981 22.1772 92.5987 22.076 92.5987 21.9747L92.201 20.4557C92.201 20.3544 92.201 20.2532 92.3005 20.1519L93.3939 18.9367C93.4933 18.8354 93.5927 18.8354 93.6921 18.8354L95.1832 19.2405C95.2826 19.2405 95.3821 19.3418 95.3821 19.443L95.7797 20.962C95.8791 21.0633 95.7797 21.1646 95.6803 21.2658Z" fill="black"/>
</g>
<defs>
<clipPath id="clip0_6_165">
<rect width="100.5" height="24" fill="white" transform="translate(0.25)"/>
</clipPath>
</defs>
</svg>
