<svg width="118" height="28" viewBox="0 0 118 28" fill="none" xmlns="http://www.w3.org/2000/svg">
<g clip-path="url(#clip0_2_745)">
<path d="M112.201 2.36291V0.236328H106.637V2.36291C106.637 2.48105 106.753 2.71734 106.869 2.71734L109.303 3.89877C109.419 4.01692 109.535 4.01692 109.651 3.89877L112.085 2.71734C112.085 2.71734 112.201 2.5992 112.201 2.36291Z" fill="white"/>
<path d="M105.594 25.9916C104.783 24.3376 105.131 22.3292 106.406 21.0296C106.637 20.7933 106.869 20.557 107.217 20.4389C107.333 20.3207 107.449 20.2026 107.449 20.0844V6.37979C107.449 6.26165 107.333 6.1435 107.217 6.02536C105.246 4.84392 104.551 2.24477 105.71 0.236328H103.971C102.58 0.236328 101.537 1.29962 101.537 2.71734V25.1646C101.537 26.5823 102.58 27.6456 103.971 27.6456H107.101C106.406 27.2912 105.942 26.7005 105.594 25.9916Z" fill="white"/>
<path d="M114.751 0.236328H113.012C114.171 2.24477 113.476 4.84392 111.506 6.02536C111.39 6.1435 111.274 6.26165 111.274 6.37979V20.0844C111.274 20.2026 111.39 20.3207 111.506 20.4389C113.476 21.6203 114.171 24.2195 113.012 26.346C112.665 26.9368 112.201 27.4093 111.737 27.7638H114.751C116.142 27.7638 117.185 26.7005 117.185 25.2827V2.71734C117.185 1.41776 116.142 0.236328 114.751 0.236328Z" fill="white"/>
<path d="M4.98414 18.903C5.21596 19.0211 5.44778 19.2574 5.79551 19.6118C6.14324 19.9662 6.49097 20.2025 6.8387 20.4388C7.41825 20.7932 7.9978 21.1477 8.69326 21.384C9.27282 21.6203 9.96828 21.7384 10.5478 21.7384C11.1274 21.7384 11.591 21.6203 12.0547 21.5021C12.4024 21.384 12.7501 21.1477 12.9819 20.9114C13.2138 20.6751 13.4456 20.4388 13.4456 20.0844C13.5615 19.73 13.5615 19.4937 13.5615 19.1392C13.5615 18.7848 13.4456 18.4304 13.0979 18.076C12.7501 17.7215 12.4024 17.4852 12.0547 17.2489C11.591 17.0127 11.2433 16.7764 10.7796 16.6582C10.316 16.5401 9.96828 16.4219 9.62055 16.1857C8.34553 15.7131 7.07052 15.1224 5.79551 14.5316C4.86823 14.0591 3.94095 13.3502 3.12958 12.5232C2.43411 11.8143 1.85456 10.9873 1.50683 10.1603C1.39092 9.45148 1.1591 8.50633 1.1591 7.56118C1.1591 6.37975 1.39092 5.4346 1.85456 4.37131C2.3182 3.42616 3.01366 2.59916 3.82504 2.00844C4.75232 1.29958 5.79551 0.827004 6.8387 0.472574C8.11371 0.118143 9.38873 0 10.6637 0C11.7069 0 12.7501 0.118143 13.7933 0.35443C14.8365 0.590717 15.7638 1.06329 16.6911 1.53586C17.1547 1.77215 17.5024 2.00844 17.8502 2.24473C18.1979 2.48101 18.5456 2.7173 18.7775 2.95359C19.0093 3.18987 19.2411 3.42616 19.4729 3.66245C19.5888 3.78059 19.7047 4.01688 19.7047 4.25316C19.7047 4.37131 19.7047 4.60759 19.5888 4.72574C19.4729 4.84388 19.357 5.08017 19.2411 5.19831L16.4592 8.1519C16.3433 8.38819 16.1115 8.38819 15.8797 8.50633C15.7638 8.50633 15.532 8.50633 15.4161 8.38819C15.4161 8.27004 15.3001 8.1519 15.0683 8.03376L14.8365 7.91561C14.6047 7.67933 14.3729 7.44304 14.0251 7.32489C13.6774 7.08861 13.4456 6.85232 13.0979 6.73418C12.7501 6.49789 12.4024 6.37975 12.0547 6.2616C11.7069 6.14346 11.3592 6.14346 10.8956 6.14346C10.5478 6.14346 10.2001 6.14346 9.73646 6.2616C9.50464 6.14346 9.27282 6.2616 8.92509 6.37975C8.69326 6.61603 8.46144 6.73418 8.34553 6.97046C7.9978 7.56118 7.9978 8.1519 8.34553 8.74262C8.57735 9.09705 8.80918 9.33333 9.15691 9.45148C9.50464 9.68776 9.96828 9.92405 10.4319 10.0422C10.7796 10.2785 11.4751 10.5148 12.0547 10.6329C13.3297 11.1055 14.4888 11.4599 15.532 11.9325C16.5752 12.4051 17.5024 12.8776 18.3138 13.5865C19.1252 14.1772 19.7047 15.0042 20.1684 15.8312C20.632 16.8945 20.8638 17.9578 20.8638 19.0211C20.8638 20.3207 20.632 21.5021 20.0525 22.6835C19.4729 23.7468 18.7775 24.692 17.8502 25.519C16.807 26.346 15.7638 26.9367 14.4888 27.2911C13.2138 27.7637 11.8228 27.8819 10.4319 27.8819C9.041 27.8819 7.65007 27.6456 6.37506 27.173C5.10005 26.7004 3.82504 25.9916 2.66593 25.1646C2.20229 24.8101 1.85456 24.4557 1.39092 24.1013C1.04319 23.7468 0.811371 23.5105 0.579551 23.2743L0.463641 23.1561C0.11591 22.9198 0 22.6835 0 22.5654C0 22.4473 0.11591 22.0928 0.463641 21.8565L3.47731 18.7848C3.70913 18.6667 3.82504 18.5485 4.05686 18.5485C4.17277 18.5485 4.28868 18.5485 4.40459 18.6667C4.63641 18.6667 4.75232 18.7848 4.98414 18.903Z" fill="white"/>
<path d="M25.1525 1.41782C25.1525 1.18154 25.2684 0.945251 25.3843 0.827107C25.5003 0.708964 25.7321 0.59082 25.9639 0.59082H43.8141C44.0459 0.59082 44.2777 0.708964 44.3936 0.827107C44.5095 0.945251 44.6254 1.29968 44.6254 1.41782V5.90728C44.6254 6.14356 44.5095 6.37985 44.3936 6.49799C44.2777 6.73428 44.0459 6.73428 43.8141 6.73428H32.223V11.2237H41.264C41.4959 11.2237 41.7277 11.2237 41.8436 11.3419C41.9595 11.46 42.0754 11.6963 42.0754 11.9326V15.8313C42.0754 16.0676 41.9595 16.1858 41.8436 16.3039C41.7277 16.422 41.4959 16.5402 41.264 16.5402H32.223V21.2659H44.2777C44.8573 21.2659 45.0891 21.5022 45.0891 22.0929V26.7005C45.0891 26.8187 44.9732 26.9368 44.9732 27.055C44.9732 27.4094 44.7413 27.5275 44.2777 27.5275H25.9639C25.7321 27.5275 25.5003 27.4094 25.3843 27.2912C25.2684 27.1731 25.1525 26.9368 25.1525 26.7005V1.41782Z" fill="white"/>
<path d="M49.4937 1.41782C49.4937 1.18154 49.6096 0.945251 49.7255 0.827107C49.8414 0.708964 50.0732 0.59082 50.305 0.59082H61.896C63.0552 0.59082 64.2143 0.827107 65.3734 1.29968C66.4165 1.77225 67.3438 2.36297 68.1552 3.18998C68.9666 4.01698 69.5461 4.96213 70.0098 6.02542C70.4734 7.08871 70.7052 8.27015 70.7052 9.45158C70.7052 10.2786 70.5893 10.9874 70.3575 11.8144C69.8939 13.2322 69.0825 14.6499 68.0393 15.7132C67.4597 16.1858 66.8802 16.6583 66.3006 17.1309L70.937 25.9917C71.053 26.1098 71.1689 26.3461 71.2848 26.5824C71.4007 26.8187 71.5166 26.9368 71.5166 27.1731C71.5166 27.2912 71.4007 27.5275 71.2848 27.6457C71.1689 27.7638 70.937 27.7638 70.8211 27.7638H64.6779C64.4461 27.7638 64.3302 27.6457 64.0983 27.5275C63.9824 27.4094 63.8665 27.2912 63.7506 27.055L59.346 18.6668H56.4483V26.9368C56.4483 27.4094 56.2164 27.7638 55.6369 27.7638H50.305C50.0732 27.7638 49.8414 27.6457 49.7255 27.5275C49.6096 27.4094 49.4937 27.1731 49.4937 26.9368V1.41782ZM63.5188 9.56972C63.5188 9.21529 63.4029 8.86086 63.287 8.50643C63.1711 8.152 62.9392 7.79757 62.7074 7.44314C62.5915 7.08871 62.2438 6.85242 61.896 6.61614C61.5483 6.37985 61.2006 6.26171 60.7369 6.26171L59.8097 6.14356C59.5778 6.14356 59.2301 6.14356 58.8824 6.14356H56.4483V12.8777H59.6938C59.9256 12.8777 60.1574 12.8777 60.2733 12.8777C60.3892 12.8777 60.621 12.8777 60.8529 12.7596C61.3165 12.7596 61.6642 12.6415 62.012 12.4052C62.3597 12.1689 62.5915 11.9326 62.8233 11.6963C63.0552 11.3419 63.287 11.1056 63.4029 10.633C63.5188 10.2786 63.5188 9.92415 63.5188 9.56972Z" fill="white"/>
<path d="M82.0644 27.291C81.9485 27.0547 81.8326 26.8184 81.7167 26.5822C81.6008 26.3459 81.4849 26.1096 81.3689 25.8733L72.0961 1.4176C72.0961 1.29946 72.0961 1.29946 72.0961 1.29946V1.18131C72.0961 0.826884 72.3279 0.70874 72.7916 0.70874H78.5871C79.0507 0.70874 79.3985 0.945027 79.5144 1.4176L84.9622 18.0758C85.4258 16.6581 85.8894 15.3585 86.3531 13.9408C86.8167 12.5231 87.2804 11.2235 87.6281 9.80579C88.0917 8.38806 88.5554 7.08849 88.9031 5.67077C89.2508 4.25304 89.8304 2.95347 90.294 1.53574C90.4099 1.06317 90.8736 0.826884 91.3372 0.826884H97.0168C97.2486 0.826884 97.4805 0.826884 97.5964 0.945027C97.7123 1.06317 97.8282 1.18131 97.7123 1.4176C97.7123 1.53574 97.7123 1.53574 97.7123 1.65389V1.77203L88.4395 26.3459C88.3236 26.464 88.3236 26.7003 88.2076 26.9366C88.0917 27.1729 87.9758 27.291 87.9758 27.5273C87.8599 27.6454 87.744 27.8817 87.6281 27.9999C87.5122 28.118 87.2804 28.2362 87.1645 28.2362H82.7599C82.4121 27.7636 82.1803 27.5273 82.0644 27.291Z" fill="white"/>
<path d="M111.274 24.8101L109.999 26.2278C109.883 26.3459 109.767 26.3459 109.651 26.3459L107.912 25.8733C107.797 25.8733 107.681 25.7552 107.681 25.6371L107.217 23.8649C107.217 23.7468 107.217 23.6286 107.333 23.5105L108.608 22.0928C108.724 21.9746 108.84 21.9746 108.956 21.9746L110.694 22.4472C110.81 22.4472 110.926 22.5653 110.926 22.6835L111.39 24.4556C111.506 24.5738 111.39 24.6919 111.274 24.8101Z" fill="white"/>
</g>
<defs>
<clipPath id="clip0_2_745">
<rect width="117.185" height="28" fill="white"/>
</clipPath>
</defs>
</svg>
