<svg width="67" height="16" viewBox="0 0 67 16" fill="none" xmlns="http://www.w3.org/2000/svg">
<g clip-path="url(#clip0_5_992)">
<path d="M64.1149 1.3502V0.13501H60.9357V1.3502C60.9357 1.41771 61.0019 1.55273 61.0681 1.55273L62.4591 2.22784C62.5253 2.29535 62.5915 2.29535 62.6578 2.22784L64.0487 1.55273C64.0487 1.55273 64.1149 1.48522 64.1149 1.3502Z" fill="white"/>
<path d="M60.3395 14.8523C59.8759 13.9072 60.0746 12.7595 60.8032 12.0169C60.9356 11.8818 61.0681 11.7468 61.2668 11.6793C61.333 11.6118 61.3993 11.5443 61.3993 11.4768V3.64556C61.3993 3.57805 61.333 3.51054 61.2668 3.44303C60.1408 2.76792 59.7434 1.28269 60.4057 0.13501H59.4122C58.6174 0.13501 58.0213 0.742605 58.0213 1.55273V14.3797C58.0213 15.1899 58.6174 15.7975 59.4122 15.7975H61.2006C60.8032 15.5949 60.5382 15.2574 60.3395 14.8523Z" fill="white"/>
<path d="M65.5721 0.13501H64.5785C65.2409 1.28269 64.8435 2.76792 63.7175 3.44303C63.6513 3.51054 63.585 3.57805 63.585 3.64556V11.4768C63.585 11.5443 63.6513 11.6118 63.7175 11.6793C64.8435 12.3544 65.2409 13.8397 64.5785 15.0548C64.3798 15.3924 64.1149 15.6624 63.85 15.865H65.5721C66.3669 15.865 66.963 15.2574 66.963 14.4472V1.55273C66.963 0.810115 66.3669 0.13501 65.5721 0.13501Z" fill="white"/>
<path d="M2.84808 10.8017C2.98055 10.8692 3.11302 11.0042 3.31172 11.2068C3.51042 11.4093 3.70913 11.5443 3.90783 11.6793C4.239 11.8819 4.57017 12.0844 4.96758 12.2194C5.29875 12.3544 5.69616 12.4219 6.02733 12.4219C6.3585 12.4219 6.62344 12.3544 6.88838 12.2869C7.08708 12.2194 7.28578 12.0844 7.41825 11.9494C7.55072 11.8143 7.68319 11.6793 7.68319 11.4768C7.74943 11.2743 7.74942 11.1392 7.74942 10.9367C7.74942 10.7342 7.68319 10.5316 7.48449 10.3291C7.28578 10.1266 7.08708 9.99156 6.88838 9.85654C6.62344 9.72152 6.42474 9.5865 6.1598 9.51899C5.89486 9.45148 5.69616 9.38397 5.49746 9.24895C4.76888 8.9789 4.0403 8.64135 3.31172 8.3038C2.78184 8.03376 2.25197 7.62869 1.78833 7.15612C1.39092 6.75106 1.05975 6.27848 0.861047 5.80591C0.794813 5.40085 0.662344 4.86076 0.662344 4.32068C0.662344 3.64557 0.794813 3.10549 1.05975 2.49789C1.32469 1.95781 1.72209 1.48523 2.18574 1.14768C2.71561 0.742616 3.31172 0.472574 3.90783 0.270042C4.63641 0.0675106 5.36499 0 6.09356 0C6.68967 0 7.28578 0.0675106 7.88189 0.202532C8.478 0.337553 9.00788 0.607595 9.53775 0.877637C9.80269 1.01266 10.0014 1.14768 10.2001 1.2827C10.3988 1.41772 10.5975 1.55274 10.73 1.68776C10.8624 1.82279 10.9949 1.95781 11.1274 2.09283C11.1936 2.16034 11.2598 2.29536 11.2598 2.43038C11.2598 2.49789 11.2598 2.63291 11.1936 2.70042C11.1274 2.76793 11.0611 2.90295 10.9949 2.97046L9.40528 4.65823C9.33905 4.79325 9.20658 4.79325 9.07411 4.86076C9.00788 4.86076 8.87541 4.86076 8.80918 4.79325C8.80918 4.72574 8.74294 4.65823 8.61047 4.59072L8.478 4.52321C8.34554 4.38819 8.21307 4.25316 8.01436 4.18565C7.81566 4.05063 7.68319 3.91561 7.48449 3.8481C7.28578 3.71308 7.08708 3.64557 6.88838 3.57806C6.68967 3.51055 6.49097 3.51055 6.22603 3.51055C6.02733 3.51055 5.82863 3.51055 5.56369 3.57806C5.43122 3.51055 5.29875 3.57806 5.10005 3.64557C4.96758 3.78059 4.83511 3.8481 4.76888 3.98312C4.57017 4.32068 4.57017 4.65823 4.76888 4.99578C4.90135 5.19831 5.03381 5.33333 5.23252 5.40084C5.43122 5.53587 5.69616 5.67089 5.9611 5.7384C6.1598 5.87342 6.55721 6.00844 6.88838 6.07595C7.61696 6.34599 8.2793 6.54852 8.87541 6.81857C9.47152 7.08861 10.0014 7.35865 10.465 7.76371C10.9287 8.10127 11.2598 8.57384 11.5248 9.04641C11.7897 9.65401 11.9222 10.2616 11.9222 10.8692C11.9222 11.6118 11.7897 12.2869 11.4586 12.962C11.1274 13.5696 10.73 14.1097 10.2001 14.5823C9.60399 15.0549 9.00788 15.3924 8.2793 15.5949C7.55072 15.865 6.75591 15.9325 5.9611 15.9325C5.16628 15.9325 4.37147 15.7975 3.64289 15.5274C2.91431 15.2574 2.18574 14.8523 1.52339 14.3797C1.25845 14.1772 1.05975 13.9747 0.794813 13.7722C0.59611 13.5696 0.463641 13.4346 0.331172 13.2996L0.264938 13.2321C0.0662344 13.097 0 12.962 0 12.8945C0 12.827 0.0662344 12.6245 0.264938 12.4895L1.98703 10.7342C2.1195 10.6667 2.18574 10.5992 2.3182 10.5992C2.38444 10.5992 2.45067 10.5992 2.51691 10.6667C2.64938 10.6667 2.71561 10.7342 2.84808 10.8017Z" fill="white"/>
<path d="M14.3729 0.81022C14.3729 0.675199 14.4391 0.540178 14.5053 0.472668C14.5716 0.405157 14.704 0.337646 14.8365 0.337646H25.0366C25.1691 0.337646 25.3015 0.405157 25.3678 0.472668C25.434 0.540178 25.5002 0.74271 25.5002 0.81022V3.37562C25.5002 3.51064 25.434 3.64566 25.3678 3.71317C25.3015 3.84819 25.1691 3.84819 25.0366 3.84819H18.4132V6.41359H23.5794C23.7119 6.41359 23.8444 6.41359 23.9106 6.48111C23.9768 6.54862 24.0431 6.68364 24.0431 6.81866V9.0465C24.0431 9.18153 23.9768 9.24904 23.9106 9.31655C23.8444 9.38406 23.7119 9.45157 23.5794 9.45157H18.4132V12.152H25.3015C25.6327 12.152 25.7652 12.287 25.7652 12.6246V15.2575C25.7652 15.325 25.6989 15.3925 25.6989 15.46C25.6989 15.6625 25.5665 15.73 25.3015 15.73H14.8365C14.704 15.73 14.5716 15.6625 14.5053 15.595C14.4391 15.5275 14.3729 15.3925 14.3729 15.2575V0.81022Z" fill="white"/>
<path d="M28.2821 0.81022C28.2821 0.675199 28.3483 0.540178 28.4146 0.472668C28.4808 0.405157 28.6133 0.337646 28.7457 0.337646H35.3692C36.0315 0.337646 36.6939 0.472668 37.3562 0.74271C37.9523 1.01275 38.4822 1.3503 38.9458 1.82288C39.4095 2.29545 39.7407 2.83554 40.0056 3.44313C40.2705 4.05073 40.403 4.72583 40.403 5.40094C40.403 5.87351 40.3368 6.27858 40.2043 6.75115C39.9394 7.56128 39.4757 8.3714 38.8796 8.979C38.5484 9.24904 38.2173 9.51908 37.8861 9.78912L40.5355 14.8524C40.6017 14.9199 40.6679 15.0549 40.7342 15.19C40.8004 15.325 40.8666 15.3925 40.8666 15.5275C40.8666 15.595 40.8004 15.7301 40.7342 15.7976C40.6679 15.8651 40.5355 15.8651 40.4692 15.8651H36.9588C36.8263 15.8651 36.7601 15.7976 36.6276 15.7301C36.5614 15.6625 36.4952 15.595 36.4289 15.46L33.912 10.6668H32.2562V15.3925C32.2562 15.6625 32.1237 15.8651 31.7925 15.8651H28.7457C28.6133 15.8651 28.4808 15.7976 28.4146 15.7301C28.3483 15.6625 28.2821 15.5275 28.2821 15.3925V0.81022ZM36.2965 5.46845C36.2965 5.26592 36.2302 5.06339 36.164 4.86085C36.0978 4.65832 35.9653 4.45579 35.8328 4.25326C35.7666 4.05073 35.5679 3.91571 35.3692 3.78068C35.1705 3.64566 34.9718 3.57815 34.7068 3.57815L34.177 3.51064C34.0445 3.51064 33.8458 3.51064 33.6471 3.51064H32.2562V7.35874H34.1107C34.2432 7.35874 34.3757 7.35874 34.4419 7.35874C34.5081 7.35874 34.6406 7.35874 34.7731 7.29123C35.038 7.29123 35.2367 7.22372 35.4354 7.0887C35.6341 6.95368 35.7666 6.81866 35.8991 6.68364C36.0315 6.48111 36.164 6.34609 36.2302 6.07604C36.2965 5.87351 36.2965 5.67098 36.2965 5.46845Z" fill="white"/>
<path d="M46.894 15.5949C46.8277 15.4599 46.7615 15.3249 46.6953 15.1898C46.629 15.0548 46.5628 14.9198 46.4966 14.7848L41.1978 0.810093C41.1978 0.742582 41.1978 0.742582 41.1978 0.742582V0.675071C41.1978 0.47254 41.3303 0.405029 41.5952 0.405029H44.9069C45.1719 0.405029 45.3706 0.54005 45.4368 0.810093L48.5498 10.3291C48.8148 9.51895 49.0797 8.77634 49.3446 7.96621C49.6096 7.15608 49.8745 6.41347 50.0732 5.60334C50.3382 4.79322 50.6031 4.0506 50.8018 3.24047C51.0005 2.43035 51.3317 1.68773 51.5966 0.877603C51.6629 0.607561 51.9278 0.47254 52.1927 0.47254H55.4382C55.5707 0.47254 55.7031 0.47254 55.7694 0.54005C55.8356 0.607561 55.9019 0.675072 55.8356 0.810093C55.8356 0.877603 55.8356 0.877603 55.8356 0.945114V1.01262L50.5369 15.0548C50.4706 15.1223 50.4706 15.2573 50.4044 15.3924C50.3382 15.5274 50.2719 15.5949 50.2719 15.7299C50.2057 15.7974 50.1395 15.9325 50.0732 16C50.007 16.0675 49.8745 16.135 49.8083 16.135H47.2914C47.0927 15.8649 46.9602 15.7299 46.894 15.5949Z" fill="white"/>
<path d="M63.585 14.1771L62.8565 14.9873C62.7902 15.0548 62.724 15.0548 62.6578 15.0548L61.6642 14.7847C61.598 14.7847 61.5318 14.7172 61.5318 14.6497L61.2668 13.6371C61.2668 13.5695 61.2668 13.502 61.3331 13.4345L62.0617 12.6244C62.1279 12.5569 62.1941 12.5569 62.2604 12.5569L63.2539 12.8269C63.3201 12.8269 63.3863 12.8944 63.3863 12.9619L63.6513 13.9746C63.7175 14.0421 63.6513 14.1096 63.585 14.1771Z" fill="white"/>
</g>
<defs>
<clipPath id="clip0_5_992">
<rect width="66.963" height="16" fill="white"/>
</clipPath>
</defs>
</svg>
