<svg width="262" height="226" viewBox="0 0 262 226" fill="none" xmlns="http://www.w3.org/2000/svg">
<rect x="6" y="6" width="256" height="220" rx="16" stroke="url(#paint0_linear_1_409)"/>
<g filter="url(#filter0_d_1_409)">
<rect x="6" y="6" width="72" height="72" rx="8" fill="#DFEEEE" shape-rendering="crispEdges"/>
<path d="M25.6666 42C25.0477 42 24.4543 42.2458 24.0167 42.6834C23.5791 43.121 23.3333 43.7145 23.3333 44.3333V63C23.3333 63.6188 23.5791 64.2123 24.0167 64.6499C24.4543 65.0875 25.0477 65.3333 25.6666 65.3333C26.2854 65.3333 26.8789 65.0875 27.3165 64.6499C27.7541 64.2123 27.9999 63.6188 27.9999 63V44.3333C27.9999 43.7145 27.7541 43.121 27.3165 42.6834C26.8789 42.2458 26.2854 42 25.6666 42ZM37.3333 18.6666C36.7144 18.6666 36.1209 18.9125 35.6833 19.35C35.2458 19.7876 34.9999 20.3811 34.9999 21V63C34.9999 63.6188 35.2458 64.2123 35.6833 64.6499C36.1209 65.0875 36.7144 65.3333 37.3333 65.3333C37.9521 65.3333 38.5456 65.0875 38.9832 64.6499C39.4208 64.2123 39.6666 63.6188 39.6666 63V21C39.6666 20.3811 39.4208 19.7876 38.9832 19.35C38.5456 18.9125 37.9521 18.6666 37.3333 18.6666ZM60.6666 51.3333C60.0477 51.3333 59.4543 51.5791 59.0167 52.0167C58.5791 52.4543 58.3333 53.0478 58.3333 53.6666V63C58.3333 63.6188 58.5791 64.2123 59.0167 64.6499C59.4543 65.0875 60.0477 65.3333 60.6666 65.3333C61.2854 65.3333 61.8789 65.0875 62.3165 64.6499C62.7541 64.2123 62.9999 63.6188 62.9999 63V53.6666C62.9999 53.0478 62.7541 52.4543 62.3165 52.0167C61.8789 51.5791 61.2854 51.3333 60.6666 51.3333ZM48.9999 32.6666C48.3811 32.6666 47.7876 32.9125 47.35 33.35C46.9124 33.7876 46.6666 34.3811 46.6666 35V63C46.6666 63.6188 46.9124 64.2123 47.35 64.6499C47.7876 65.0875 48.3811 65.3333 48.9999 65.3333C49.6188 65.3333 50.2123 65.0875 50.6498 64.6499C51.0874 64.2123 51.3333 63.6188 51.3333 63V35C51.3333 34.3811 51.0874 33.7876 50.6498 33.35C50.2123 32.9125 49.6188 32.6666 48.9999 32.6666Z" fill="#12BF7C"/>
</g>
<path d="M24.5859 99.9375V100.57H22.7109V113.367H23.9531C24.2812 113.398 24.4922 113.609 24.5859 114H17.6719V113.367H19.5469V102.234L14.5078 114.234H14.0859L9.09375 104.531V113.367H10.3359C10.6641 113.398 10.875 113.609 10.9688 114H6.23438V113.367H8.10938V100.57H6.23438V99.9375H10.4297L15.3516 110.016L19.5469 99.9375H24.5859ZM33.9141 114.234C32.6641 114.156 31.875 113.445 31.5469 112.102C31.4688 112.32 31.3672 112.531 31.2422 112.734C30.6172 113.734 29.6406 114.234 28.3125 114.234C27.875 114.234 27.4766 114.18 27.1172 114.07C25.8984 113.68 25.2891 112.789 25.2891 111.398C25.3047 109.352 27.3203 108.289 31.3359 108.211V106.688C31.3359 106.234 31.3047 105.844 31.2422 105.516C31.0859 104.625 30.6406 104.18 29.9062 104.18C29.6875 104.18 29.4922 104.219 29.3203 104.297C29.0547 104.453 28.8359 104.844 28.6641 105.469C28.6016 105.688 28.5547 105.844 28.5234 105.938C28.2891 106.594 27.8359 106.922 27.1641 106.922C27.0078 106.922 26.8594 106.898 26.7188 106.852C26.1406 106.695 25.8516 106.312 25.8516 105.703C25.8516 105.438 25.9219 105.188 26.0625 104.953C26.6094 104.031 27.9453 103.57 30.0703 103.57C30.6172 103.57 31.125 103.625 31.5938 103.734C33.4062 104.188 34.3125 105.391 34.3125 107.344V112.242C34.3125 112.992 34.4844 113.383 34.8281 113.414C35.2812 113.398 35.5547 112.852 35.6484 111.773L36.2578 111.797C36.2109 112.281 36.1406 112.68 36.0469 112.992C35.7656 113.82 35.0547 114.234 33.9141 114.234ZM29.5312 113.227C29.6406 113.227 29.7656 113.203 29.9062 113.156C30.5625 112.906 31.0391 112.234 31.3359 111.141V108.867C30.6328 108.898 30.0547 108.984 29.6016 109.125C28.7578 109.438 28.3359 110.109 28.3359 111.141C28.3516 112.5 28.75 113.195 29.5312 113.227ZM42.9141 113.391C43.0078 113.391 43.0938 113.398 43.1719 113.414C43.375 113.445 43.4766 113.641 43.4766 114H36.8438V113.391C37.0469 113.391 37.2266 113.375 37.3828 113.344C37.9297 113.25 38.2031 112.859 38.2031 112.172V104.531H36.8438V103.922H40.9453L41.1094 106.102C41.2812 105.664 41.5312 105.258 41.8594 104.883C42.5938 104.117 43.4453 103.734 44.4141 103.734C44.6172 103.734 44.8125 103.758 45 103.805C45.7656 104.008 46.1484 104.5 46.1484 105.281C46.1484 105.5 46.1016 105.711 46.0078 105.914C45.7422 106.508 45.2969 106.805 44.6719 106.805C44.4844 106.805 44.3125 106.781 44.1562 106.734C43.8281 106.609 43.5234 106.297 43.2422 105.797C43.0391 105.438 42.8516 105.258 42.6797 105.258C42.5859 105.258 42.4844 105.281 42.375 105.328C41.6875 105.688 41.2891 106.688 41.1797 108.328V113.391H42.9141ZM52.5938 113.391C52.6875 113.391 52.7734 113.398 52.8516 113.414C53.0547 113.445 53.1562 113.641 53.1562 114H46.6172V113.391C47.7734 113.391 48.3672 112.984 48.3984 112.172V99.375H46.6172V98.7656H51.375V108.82L55.8984 104.531H54.1875V103.922H58.1484C58.1484 104 58.1406 104.078 58.125 104.156C58.0781 104.406 57.8828 104.531 57.5391 104.531C57.4141 104.531 57.2891 104.539 57.1641 104.555C56.8672 104.617 56.4453 104.906 55.8984 105.422L54.1641 107.086L57.9375 113.391H58.2891C58.3984 113.391 58.4922 113.398 58.5703 113.414C58.7578 113.461 58.8516 113.656 58.8516 114L54.9609 114.023L52.1016 109.078L51.375 109.781V113.391H52.5938ZM64.5703 104.18C63.3203 104.227 62.6406 105.547 62.5312 108.141L64.0312 108.211C64.6562 108.242 65.125 108.203 65.4375 108.094C65.875 107.922 66.0938 107.469 66.0938 106.734C66.0781 105.062 65.5703 104.211 64.5703 104.18ZM68.9531 111.586C68.8594 111.836 68.7344 112.078 68.5781 112.312C67.7812 113.594 66.4688 114.234 64.6406 114.234C63.6094 114.234 62.6875 114.023 61.875 113.602C60.1719 112.711 59.3203 111.133 59.3203 108.867C59.3203 107.477 59.6953 106.312 60.4453 105.375C61.4297 104.172 62.8047 103.57 64.5703 103.57C65.5391 103.57 66.4062 103.734 67.1719 104.062C68.5312 104.672 69.2109 105.641 69.2109 106.969C69.2109 107.234 69.1641 107.477 69.0703 107.695C68.6641 108.57 67.2031 108.969 64.6875 108.891L62.5312 108.82C62.5469 109.727 62.625 110.508 62.7656 111.164C63.125 112.758 63.9297 113.555 65.1797 113.555C65.5703 113.555 65.9531 113.484 66.3281 113.344C67.2656 113 67.9531 112.352 68.3906 111.398L68.9531 111.586ZM70.125 104.648V104.039H71.7422V101.812L74.7188 101.32V104.039H77.8125V104.648H74.7188V111.75C74.7188 111.953 74.7344 112.148 74.7656 112.336C74.8906 113.148 75.2422 113.555 75.8203 113.555C75.9141 113.555 76.0078 113.547 76.1016 113.531C76.7109 113.406 77.1719 112.711 77.4844 111.445L78.1172 111.539C77.9922 112.18 77.8203 112.695 77.6016 113.086C77.1484 113.867 76.3203 114.258 75.1172 114.258C74.9297 114.258 74.7422 114.25 74.5547 114.234C72.6797 114.016 71.7422 112.773 71.7422 110.508V104.648H70.125ZM84.0234 113.391C84.1172 113.391 84.2031 113.398 84.2812 113.414C84.4844 113.445 84.5859 113.641 84.5859 114H78.8203V113.391C79.0234 113.391 79.2031 113.375 79.3594 113.344C79.9062 113.25 80.1797 112.859 80.1797 112.172V104.531H78.8203V103.922H83.1562V113.391H84.0234ZM83.3672 100.852C83.3672 101.148 83.2891 101.43 83.1328 101.695C82.8047 102.273 82.2969 102.562 81.6094 102.562C81.3281 102.562 81.0547 102.492 80.7891 102.352C80.1797 102.039 79.875 101.539 79.875 100.852C79.875 100.555 79.9453 100.273 80.0859 100.008C80.4297 99.3984 80.9375 99.0938 81.6094 99.0938C81.9062 99.0938 82.1875 99.1719 82.4531 99.3281C83.0625 99.6562 83.3672 100.164 83.3672 100.852ZM90.4453 113.391C90.5391 113.391 90.625 113.398 90.7031 113.414C90.9062 113.445 91.0078 113.641 91.0078 114H85.5234V113.391C85.6484 113.391 85.7656 113.383 85.875 113.367C86.5469 113.289 86.8828 112.891 86.8828 112.172V104.531H85.5234V103.922H89.6953L89.8125 105.75C89.9531 105.469 90.1406 105.195 90.375 104.93C91.1719 104.023 92.1406 103.57 93.2812 103.57C93.6875 103.57 94.0781 103.633 94.4531 103.758C95.8281 104.242 96.5156 105.453 96.5156 107.391V113.391H97.2891C97.3828 113.391 97.4766 113.398 97.5703 113.414C97.7734 113.445 97.875 113.641 97.875 114H92.4609V113.391C92.6797 113.391 92.8672 113.367 93.0234 113.32C93.3672 113.211 93.5391 112.828 93.5391 112.172V106.992C93.5391 106.773 93.5234 106.562 93.4922 106.359C93.3359 105.312 92.8125 104.789 91.9219 104.789C91.6875 104.789 91.4609 104.844 91.2422 104.953C90.4453 105.344 89.9922 106.156 89.8828 107.391L89.8594 113.391H90.4453ZM102.211 107.531C102.211 108.609 102.266 109.359 102.375 109.781C102.562 110.5 103.039 110.859 103.805 110.859C104.273 110.859 104.641 110.727 104.906 110.461C105.281 110.039 105.469 109.039 105.469 107.461C105.469 106.43 105.414 105.695 105.305 105.258C105.102 104.539 104.609 104.18 103.828 104.18C103.344 104.18 102.977 104.32 102.727 104.602C102.383 105.008 102.211 105.984 102.211 107.531ZM103.922 103.57C105.016 103.57 105.938 103.805 106.688 104.273C106.75 104.102 106.82 103.93 106.898 103.758C107.352 102.82 107.984 102.352 108.797 102.352C109.094 102.352 109.367 102.406 109.617 102.516C110.164 102.75 110.438 103.148 110.438 103.711C110.438 103.789 110.43 103.867 110.414 103.945C110.305 104.383 110.016 104.602 109.547 104.602C109.344 104.602 109.125 104.508 108.891 104.32C108.594 104.055 108.344 103.922 108.141 103.922C107.766 103.938 107.438 104.164 107.156 104.602C108 105.336 108.43 106.273 108.445 107.414C108.445 108.258 108.195 109.023 107.695 109.711C106.82 110.883 105.523 111.469 103.805 111.469L101.297 111.445C101.234 111.445 101.172 111.453 101.109 111.469C100.719 111.516 100.523 111.719 100.523 112.078C100.523 112.125 100.531 112.172 100.547 112.219C100.625 112.562 100.867 112.742 101.273 112.758L106.125 112.852C106.344 112.852 106.555 112.867 106.758 112.898C108.477 113.117 109.336 114.016 109.336 115.594C109.336 116 109.219 116.391 108.984 116.766C108.234 117.969 106.578 118.57 104.016 118.57C102.953 118.57 102.047 118.43 101.297 118.148C100.188 117.727 99.6328 117.094 99.6328 116.25C99.6328 115.781 99.8359 115.305 100.242 114.82C99.6797 114.352 99.3906 113.742 99.375 112.992C99.375 112.68 99.4375 112.367 99.5625 112.055C99.9219 111.227 100.562 110.82 101.484 110.836H101.508C101.289 110.711 101.078 110.57 100.875 110.414C99.7812 109.57 99.2344 108.586 99.2344 107.461C99.2344 106.664 99.4688 105.945 99.9375 105.305C100.781 104.148 102.109 103.57 103.922 103.57ZM104.016 117.938C104.75 117.938 105.422 117.875 106.031 117.75C107.484 117.469 108.211 116.961 108.211 116.227C108.211 116.07 108.18 115.938 108.117 115.828C107.961 115.547 107.43 115.406 106.523 115.406L101.789 115.359C101.445 115.359 101.117 115.297 100.805 115.172C100.57 115.5 100.453 115.828 100.453 116.156C100.453 116.328 100.492 116.5 100.57 116.672C100.961 117.516 102.109 117.938 104.016 117.938Z" fill="black"/>
<path d="M7.89 155V142.4H13.2C14.544 142.4 15.726 142.664 16.746 143.192C17.778 143.72 18.576 144.458 19.14 145.406C19.716 146.354 20.004 147.452 20.004 148.7C20.004 149.948 19.716 151.046 19.14 151.994C18.576 152.942 17.778 153.68 16.746 154.208C15.726 154.736 14.544 155 13.2 155H7.89ZM9.69 153.434H13.092C14.136 153.434 15.036 153.236 15.792 152.84C16.56 152.444 17.154 151.892 17.574 151.184C17.994 150.464 18.204 149.636 18.204 148.7C18.204 147.752 17.994 146.924 17.574 146.216C17.154 145.508 16.56 144.956 15.792 144.56C15.036 144.164 14.136 143.966 13.092 143.966H9.69V153.434ZM22.5091 155V145.46H24.1651V148.052L24.0031 147.404C24.2671 146.744 24.7111 146.24 25.3351 145.892C25.9591 145.544 26.7271 145.37 27.6391 145.37V147.044C27.5671 147.032 27.4951 147.026 27.4231 147.026C27.3631 147.026 27.3031 147.026 27.2431 147.026C26.3191 147.026 25.5871 147.302 25.0471 147.854C24.5071 148.406 24.2371 149.204 24.2371 150.248V155H22.5091ZM29.7689 155V145.46H31.4969V155H29.7689ZM30.6329 143.624C30.2969 143.624 30.0149 143.516 29.7869 143.3C29.5709 143.084 29.4629 142.82 29.4629 142.508C29.4629 142.184 29.5709 141.914 29.7869 141.698C30.0149 141.482 30.2969 141.374 30.6329 141.374C30.9689 141.374 31.2449 141.482 31.4609 141.698C31.6889 141.902 31.8029 142.16 31.8029 142.472C31.8029 142.796 31.6949 143.072 31.4789 143.3C31.2629 143.516 30.9809 143.624 30.6329 143.624ZM37.2982 155L33.1222 145.46H34.9222L38.6302 154.1H37.7662L41.5462 145.46H43.2382L39.0622 155H37.2982ZM44.8509 155V145.46H46.5789V155H44.8509ZM45.7149 143.624C45.3789 143.624 45.0969 143.516 44.8689 143.3C44.6529 143.084 44.5449 142.82 44.5449 142.508C44.5449 142.184 44.6529 141.914 44.8689 141.698C45.0969 141.482 45.3789 141.374 45.7149 141.374C46.0509 141.374 46.3269 141.482 46.5429 141.698C46.7709 141.902 46.8849 142.16 46.8849 142.472C46.8849 142.796 46.7769 143.072 46.5609 143.3C46.3449 143.516 46.0629 143.624 45.7149 143.624ZM54.9722 145.37C55.7522 145.37 56.4362 145.52 57.0242 145.82C57.6242 146.12 58.0922 146.576 58.4282 147.188C58.7642 147.8 58.9322 148.574 58.9322 149.51V155H57.2042V149.708C57.2042 148.784 56.9762 148.088 56.5202 147.62C56.0762 147.152 55.4462 146.918 54.6302 146.918C54.0182 146.918 53.4842 147.038 53.0282 147.278C52.5722 147.518 52.2182 147.872 51.9662 148.34C51.7262 148.808 51.6062 149.39 51.6062 150.086V155H49.8782V145.46H51.5342V148.034L51.2642 147.35C51.5762 146.726 52.0562 146.24 52.7042 145.892C53.3522 145.544 54.1082 145.37 54.9722 145.37ZM66.3062 158.6C65.4302 158.6 64.5782 158.474 63.7502 158.222C62.9342 157.982 62.2682 157.634 61.7522 157.178L62.5802 155.846C63.0242 156.23 63.5702 156.53 64.2182 156.746C64.8662 156.974 65.5442 157.088 66.2522 157.088C67.3802 157.088 68.2082 156.824 68.7362 156.296C69.2642 155.768 69.5282 154.964 69.5282 153.884V151.868L69.7082 149.978L69.6182 148.07V145.46H71.2562V153.704C71.2562 155.384 70.8362 156.62 69.9962 157.412C69.1562 158.204 67.9262 158.6 66.3062 158.6ZM66.0902 154.604C65.1662 154.604 64.3382 154.412 63.6062 154.028C62.8862 153.632 62.3102 153.086 61.8782 152.39C61.4582 151.694 61.2482 150.89 61.2482 149.978C61.2482 149.054 61.4582 148.25 61.8782 147.566C62.3102 146.87 62.8862 146.33 63.6062 145.946C64.3382 145.562 65.1662 145.37 66.0902 145.37C66.9062 145.37 67.6502 145.538 68.3222 145.874C68.9942 146.198 69.5282 146.702 69.9242 147.386C70.3322 148.07 70.5362 148.934 70.5362 149.978C70.5362 151.01 70.3322 151.868 69.9242 152.552C69.5282 153.236 68.9942 153.752 68.3222 154.1C67.6502 154.436 66.9062 154.604 66.0902 154.604ZM66.2882 153.092C66.9242 153.092 67.4882 152.96 67.9802 152.696C68.4722 152.432 68.8562 152.066 69.1322 151.598C69.4202 151.13 69.5642 150.59 69.5642 149.978C69.5642 149.366 69.4202 148.826 69.1322 148.358C68.8562 147.89 68.4722 147.53 67.9802 147.278C67.4882 147.014 66.9242 146.882 66.2882 146.882C65.6522 146.882 65.0822 147.014 64.5782 147.278C64.0862 147.53 63.6962 147.89 63.4082 148.358C63.1322 148.826 62.9942 149.366 62.9942 149.978C62.9942 150.59 63.1322 151.13 63.4082 151.598C63.6962 152.066 64.0862 152.432 64.5782 152.696C65.0822 152.96 65.6522 153.092 66.2882 153.092ZM88.6799 142.4H90.4799V155H88.6799V142.4ZM81.4439 155H79.6439V142.4H81.4439V155ZM88.8419 149.384H81.2639V147.818H88.8419V149.384ZM93.9993 155V145.46H95.7273V155H93.9993ZM94.8633 143.624C94.5273 143.624 94.2453 143.516 94.0173 143.3C93.8013 143.084 93.6933 142.82 93.6933 142.508C93.6933 142.184 93.8013 141.914 94.0173 141.698C94.2453 141.482 94.5273 141.374 94.8633 141.374C95.1993 141.374 95.4753 141.482 95.6913 141.698C95.9193 141.902 96.0333 142.16 96.0333 142.472C96.0333 142.796 95.9253 143.072 95.7093 143.3C95.4933 143.516 95.2113 143.624 94.8633 143.624ZM103.203 158.6C102.327 158.6 101.475 158.474 100.647 158.222C99.8307 157.982 99.1647 157.634 98.6487 157.178L99.4767 155.846C99.9207 156.23 100.467 156.53 101.115 156.746C101.763 156.974 102.441 157.088 103.149 157.088C104.277 157.088 105.105 156.824 105.633 156.296C106.161 155.768 106.425 154.964 106.425 153.884V151.868L106.605 149.978L106.515 148.07V145.46H108.153V153.704C108.153 155.384 107.733 156.62 106.893 157.412C106.053 158.204 104.823 158.6 103.203 158.6ZM102.987 154.604C102.063 154.604 101.235 154.412 100.503 154.028C99.7827 153.632 99.2067 153.086 98.7747 152.39C98.3547 151.694 98.1447 150.89 98.1447 149.978C98.1447 149.054 98.3547 148.25 98.7747 147.566C99.2067 146.87 99.7827 146.33 100.503 145.946C101.235 145.562 102.063 145.37 102.987 145.37C103.803 145.37 104.547 145.538 105.219 145.874C105.891 146.198 106.425 146.702 106.821 147.386C107.229 148.07 107.433 148.934 107.433 149.978C107.433 151.01 107.229 151.868 106.821 152.552C106.425 153.236 105.891 153.752 105.219 154.1C104.547 154.436 103.803 154.604 102.987 154.604ZM103.185 153.092C103.821 153.092 104.385 152.96 104.877 152.696C105.369 152.432 105.753 152.066 106.029 151.598C106.317 151.13 106.461 150.59 106.461 149.978C106.461 149.366 106.317 148.826 106.029 148.358C105.753 147.89 105.369 147.53 104.877 147.278C104.385 147.014 103.821 146.882 103.185 146.882C102.549 146.882 101.979 147.014 101.475 147.278C100.983 147.53 100.593 147.89 100.305 148.358C100.029 148.826 99.8907 149.366 99.8907 149.978C99.8907 150.59 100.029 151.13 100.305 151.598C100.593 152.066 100.983 152.432 101.475 152.696C101.979 152.96 102.549 153.092 103.185 153.092ZM116.548 145.37C117.328 145.37 118.012 145.52 118.6 145.82C119.2 146.12 119.668 146.576 120.004 147.188C120.34 147.8 120.508 148.574 120.508 149.51V155H118.78V149.708C118.78 148.784 118.552 148.088 118.096 147.62C117.652 147.152 117.022 146.918 116.206 146.918C115.594 146.918 115.06 147.038 114.604 147.278C114.148 147.518 113.794 147.872 113.542 148.34C113.302 148.808 113.182 149.39 113.182 150.086V155H111.454V141.644H113.182V148.034L112.84 147.35C113.152 146.726 113.632 146.24 114.28 145.892C114.928 145.544 115.684 145.37 116.548 145.37ZM134.48 155.144C133.52 155.144 132.626 154.982 131.798 154.658C130.982 154.334 130.274 153.884 129.674 153.308C129.074 152.72 128.606 152.036 128.27 151.256C127.934 150.476 127.766 149.624 127.766 148.7C127.766 147.776 127.934 146.924 128.27 146.144C128.606 145.364 129.074 144.686 129.674 144.11C130.274 143.522 130.982 143.066 131.798 142.742C132.614 142.418 133.508 142.256 134.48 142.256C135.44 142.256 136.322 142.418 137.126 142.742C137.942 143.054 138.65 143.504 139.25 144.092C139.862 144.668 140.33 145.346 140.654 146.126C140.99 146.906 141.158 147.764 141.158 148.7C141.158 149.636 140.99 150.494 140.654 151.274C140.33 152.054 139.862 152.738 139.25 153.326C138.65 153.902 137.942 154.352 137.126 154.676C136.322 154.988 135.44 155.144 134.48 155.144ZM138.602 157.628C138.182 157.628 137.78 157.574 137.396 157.466C137.012 157.37 136.628 157.208 136.244 156.98C135.86 156.764 135.464 156.476 135.056 156.116C134.648 155.768 134.204 155.336 133.724 154.82L135.65 154.316C136.01 154.76 136.352 155.12 136.676 155.396C137.012 155.684 137.342 155.888 137.666 156.008C137.99 156.14 138.308 156.206 138.62 156.206C139.52 156.206 140.288 155.846 140.924 155.126L141.77 156.152C140.954 157.136 139.898 157.628 138.602 157.628ZM134.48 153.542C135.176 153.542 135.818 153.422 136.406 153.182C137.006 152.942 137.522 152.6 137.954 152.156C138.398 151.712 138.74 151.196 138.98 150.608C139.232 150.02 139.358 149.384 139.358 148.7C139.358 148.004 139.232 147.362 138.98 146.774C138.74 146.186 138.398 145.676 137.954 145.244C137.522 144.8 137.006 144.458 136.406 144.218C135.818 143.978 135.176 143.858 134.48 143.858C133.772 143.858 133.118 143.978 132.518 144.218C131.93 144.458 131.414 144.8 130.97 145.244C130.526 145.676 130.178 146.186 129.926 146.774C129.686 147.362 129.566 148.004 129.566 148.7C129.566 149.384 129.686 150.02 129.926 150.608C130.178 151.196 130.526 151.712 130.97 152.156C131.414 152.6 131.93 152.942 132.518 153.182C133.118 153.422 133.772 153.542 134.48 153.542ZM147.672 155.108C146.856 155.108 146.136 154.958 145.512 154.658C144.9 154.358 144.42 153.902 144.072 153.29C143.736 152.666 143.568 151.886 143.568 150.95V145.46H145.296V150.752C145.296 151.688 145.518 152.39 145.962 152.858C146.418 153.326 147.054 153.56 147.87 153.56C148.47 153.56 148.992 153.44 149.436 153.2C149.88 152.948 150.222 152.588 150.462 152.12C150.702 151.64 150.822 151.064 150.822 150.392V145.46H152.55V155H150.912V152.426L151.182 153.11C150.87 153.746 150.402 154.238 149.778 154.586C149.154 154.934 148.452 155.108 147.672 155.108ZM161.761 155V152.984L161.671 152.606V149.168C161.671 148.436 161.455 147.872 161.023 147.476C160.603 147.068 159.967 146.864 159.115 146.864C158.551 146.864 157.999 146.96 157.459 147.152C156.919 147.332 156.463 147.578 156.091 147.89L155.371 146.594C155.863 146.198 156.451 145.898 157.135 145.694C157.831 145.478 158.557 145.37 159.313 145.37C160.621 145.37 161.629 145.688 162.337 146.324C163.045 146.96 163.399 147.932 163.399 149.24V155H161.761ZM158.629 155.108C157.921 155.108 157.297 154.988 156.757 154.748C156.229 154.508 155.821 154.178 155.533 153.758C155.245 153.326 155.101 152.84 155.101 152.3C155.101 151.784 155.221 151.316 155.461 150.896C155.713 150.476 156.115 150.14 156.667 149.888C157.231 149.636 157.987 149.51 158.935 149.51H161.959V150.752H159.007C158.143 150.752 157.561 150.896 157.261 151.184C156.961 151.472 156.811 151.82 156.811 152.228C156.811 152.696 156.997 153.074 157.369 153.362C157.741 153.638 158.257 153.776 158.917 153.776C159.565 153.776 160.129 153.632 160.609 153.344C161.101 153.056 161.455 152.636 161.671 152.084L162.013 153.272C161.785 153.836 161.383 154.286 160.807 154.622C160.231 154.946 159.505 155.108 158.629 155.108ZM166.597 155V141.644H168.325V155H166.597ZM171.624 155V145.46H173.352V155H171.624ZM172.488 143.624C172.152 143.624 171.87 143.516 171.642 143.3C171.426 143.084 171.318 142.82 171.318 142.508C171.318 142.184 171.426 141.914 171.642 141.698C171.87 141.482 172.152 141.374 172.488 141.374C172.824 141.374 173.1 141.482 173.316 141.698C173.544 141.902 173.658 142.16 173.658 142.472C173.658 142.796 173.55 143.072 173.334 143.3C173.118 143.516 172.836 143.624 172.488 143.624ZM179.928 155.108C178.968 155.108 178.224 154.85 177.696 154.334C177.168 153.818 176.904 153.08 176.904 152.12V143.372H178.632V152.048C178.632 152.564 178.758 152.96 179.01 153.236C179.274 153.512 179.646 153.65 180.126 153.65C180.666 153.65 181.116 153.5 181.476 153.2L182.016 154.442C181.752 154.67 181.434 154.838 181.062 154.946C180.702 155.054 180.324 155.108 179.928 155.108ZM175.284 146.882V145.46H181.368V146.882H175.284ZM184.343 158.6C183.887 158.6 183.443 158.522 183.011 158.366C182.579 158.222 182.207 158.006 181.895 157.718L182.633 156.422C182.873 156.65 183.137 156.824 183.425 156.944C183.713 157.064 184.019 157.124 184.343 157.124C184.763 157.124 185.111 157.016 185.387 156.8C185.663 156.584 185.921 156.2 186.161 155.648L186.755 154.334L186.935 154.118L190.679 145.46H192.371L187.745 155.954C187.469 156.626 187.157 157.154 186.809 157.538C186.473 157.922 186.101 158.192 185.693 158.348C185.285 158.516 184.835 158.6 184.343 158.6ZM186.611 155.306L182.255 145.46H184.055L187.763 153.956L186.611 155.306ZM13.524 177.144C12.564 177.144 11.676 176.988 10.86 176.676C10.056 176.352 9.354 175.902 8.754 175.326C8.166 174.738 7.704 174.054 7.368 173.274C7.032 172.494 6.864 171.636 6.864 170.7C6.864 169.764 7.032 168.906 7.368 168.126C7.704 167.346 8.172 166.668 8.772 166.092C9.372 165.504 10.074 165.054 10.878 164.742C11.694 164.418 12.582 164.256 13.542 164.256C14.514 164.256 15.408 164.424 16.224 164.76C17.052 165.084 17.754 165.57 18.33 166.218L17.16 167.352C16.68 166.848 16.14 166.476 15.54 166.236C14.94 165.984 14.298 165.858 13.614 165.858C12.906 165.858 12.246 165.978 11.634 166.218C11.034 166.458 10.512 166.794 10.068 167.226C9.624 167.658 9.276 168.174 9.024 168.774C8.784 169.362 8.664 170.004 8.664 170.7C8.664 171.396 8.784 172.044 9.024 172.644C9.276 173.232 9.624 173.742 10.068 174.174C10.512 174.606 11.034 174.942 11.634 175.182C12.246 175.422 12.906 175.542 13.614 175.542C14.298 175.542 14.94 175.422 15.54 175.182C16.14 174.93 16.68 174.546 17.16 174.03L18.33 175.164C17.754 175.812 17.052 176.304 16.224 176.64C15.408 176.976 14.508 177.144 13.524 177.144ZM24.3275 177.108C23.3675 177.108 22.5155 176.898 21.7715 176.478C21.0275 176.058 20.4395 175.482 20.0075 174.75C19.5755 174.006 19.3595 173.166 19.3595 172.23C19.3595 171.282 19.5755 170.442 20.0075 169.71C20.4395 168.978 21.0275 168.408 21.7715 168C22.5155 167.58 23.3675 167.37 24.3275 167.37C25.2755 167.37 26.1215 167.58 26.8655 168C27.6215 168.408 28.2095 168.978 28.6295 169.71C29.0615 170.43 29.2775 171.27 29.2775 172.23C29.2775 173.178 29.0615 174.018 28.6295 174.75C28.2095 175.482 27.6215 176.058 26.8655 176.478C26.1215 176.898 25.2755 177.108 24.3275 177.108ZM24.3275 175.596C24.9395 175.596 25.4855 175.458 25.9655 175.182C26.4575 174.906 26.8415 174.516 27.1175 174.012C27.3935 173.496 27.5315 172.902 27.5315 172.23C27.5315 171.546 27.3935 170.958 27.1175 170.466C26.8415 169.962 26.4575 169.572 25.9655 169.296C25.4855 169.02 24.9395 168.882 24.3275 168.882C23.7155 168.882 23.1695 169.02 22.6895 169.296C22.2095 169.572 21.8255 169.962 21.5375 170.466C21.2495 170.958 21.1055 171.546 21.1055 172.23C21.1055 172.902 21.2495 173.496 21.5375 174.012C21.8255 174.516 22.2095 174.906 22.6895 175.182C23.1695 175.458 23.7155 175.596 24.3275 175.596ZM36.7613 167.37C37.5413 167.37 38.2253 167.52 38.8133 167.82C39.4133 168.12 39.8813 168.576 40.2173 169.188C40.5533 169.8 40.7213 170.574 40.7213 171.51V177H38.9933V171.708C38.9933 170.784 38.7653 170.088 38.3093 169.62C37.8653 169.152 37.2353 168.918 36.4193 168.918C35.8073 168.918 35.2733 169.038 34.8173 169.278C34.3613 169.518 34.0073 169.872 33.7553 170.34C33.5153 170.808 33.3953 171.39 33.3953 172.086V177H31.6673V167.46H33.3233V170.034L33.0533 169.35C33.3653 168.726 33.8453 168.24 34.4933 167.892C35.1413 167.544 35.8973 167.37 36.7613 167.37ZM46.2455 177L42.0695 167.46H43.8695L47.5775 176.1H46.7135L50.4935 167.46H52.1855L48.0095 177H46.2455ZM57.7825 177.108C56.7625 177.108 55.8625 176.898 55.0825 176.478C54.3145 176.058 53.7145 175.482 53.2825 174.75C52.8625 174.018 52.6525 173.178 52.6525 172.23C52.6525 171.282 52.8565 170.442 53.2645 169.71C53.6845 168.978 54.2545 168.408 54.9745 168C55.7065 167.58 56.5285 167.37 57.4405 167.37C58.3645 167.37 59.1805 167.574 59.8885 167.982C60.5965 168.39 61.1485 168.966 61.5445 169.71C61.9525 170.442 62.1565 171.3 62.1565 172.284C62.1565 172.356 62.1505 172.44 62.1385 172.536C62.1385 172.632 62.1325 172.722 62.1205 172.806H54.0025V171.564H61.2205L60.5185 171.996C60.5305 171.384 60.4045 170.838 60.1405 170.358C59.8765 169.878 59.5105 169.506 59.0425 169.242C58.5865 168.966 58.0525 168.828 57.4405 168.828C56.8405 168.828 56.3065 168.966 55.8385 169.242C55.3705 169.506 55.0045 169.884 54.7405 170.376C54.4765 170.856 54.3445 171.408 54.3445 172.032V172.32C54.3445 172.956 54.4885 173.526 54.7765 174.03C55.0765 174.522 55.4905 174.906 56.0185 175.182C56.5465 175.458 57.1525 175.596 57.8365 175.596C58.4005 175.596 58.9105 175.5 59.3665 175.308C59.8345 175.116 60.2425 174.828 60.5905 174.444L61.5445 175.56C61.1125 176.064 60.5725 176.448 59.9245 176.712C59.2885 176.976 58.5745 177.108 57.7825 177.108ZM64.556 177V167.46H66.212V170.052L66.05 169.404C66.314 168.744 66.758 168.24 67.382 167.892C68.006 167.544 68.774 167.37 69.686 167.37V169.044C69.614 169.032 69.542 169.026 69.47 169.026C69.41 169.026 69.35 169.026 69.29 169.026C68.366 169.026 67.634 169.302 67.094 169.854C66.554 170.406 66.284 171.204 66.284 172.248V177H64.556ZM74.6572 177.108C73.8652 177.108 73.1092 177 72.3892 176.784C71.6812 176.568 71.1232 176.304 70.7152 175.992L71.4352 174.624C71.8432 174.9 72.3472 175.134 72.9472 175.326C73.5472 175.518 74.1592 175.614 74.7832 175.614C75.5872 175.614 76.1632 175.5 76.5112 175.272C76.8712 175.044 77.0512 174.726 77.0512 174.318C77.0512 174.018 76.9432 173.784 76.7272 173.616C76.5112 173.448 76.2232 173.322 75.8632 173.238C75.5152 173.154 75.1252 173.082 74.6932 173.022C74.2612 172.95 73.8292 172.866 73.3972 172.77C72.9652 172.662 72.5692 172.518 72.2092 172.338C71.8492 172.146 71.5612 171.888 71.3452 171.564C71.1292 171.228 71.0212 170.784 71.0212 170.232C71.0212 169.656 71.1832 169.152 71.5072 168.72C71.8312 168.288 72.2872 167.958 72.8752 167.73C73.4752 167.49 74.1832 167.37 74.9992 167.37C75.6232 167.37 76.2532 167.448 76.8892 167.604C77.5372 167.748 78.0652 167.958 78.4732 168.234L77.7352 169.602C77.3032 169.314 76.8532 169.116 76.3852 169.008C75.9172 168.9 75.4492 168.846 74.9812 168.846C74.2252 168.846 73.6612 168.972 73.2892 169.224C72.9172 169.464 72.7312 169.776 72.7312 170.16C72.7312 170.484 72.8392 170.736 73.0552 170.916C73.2832 171.084 73.5712 171.216 73.9192 171.312C74.2792 171.408 74.6752 171.492 75.1072 171.564C75.5392 171.624 75.9712 171.708 76.4032 171.816C76.8352 171.912 77.2252 172.05 77.5732 172.23C77.9332 172.41 78.2212 172.662 78.4372 172.986C78.6652 173.31 78.7792 173.742 78.7792 174.282C78.7792 174.858 78.6112 175.356 78.2752 175.776C77.9392 176.196 77.4652 176.526 76.8532 176.766C76.2412 176.994 75.5092 177.108 74.6572 177.108ZM86.8608 177V174.984L86.7708 174.606V171.168C86.7708 170.436 86.5548 169.872 86.1228 169.476C85.7028 169.068 85.0668 168.864 84.2148 168.864C83.6508 168.864 83.0988 168.96 82.5588 169.152C82.0188 169.332 81.5628 169.578 81.1908 169.89L80.4708 168.594C80.9628 168.198 81.5508 167.898 82.2348 167.694C82.9308 167.478 83.6568 167.37 84.4128 167.37C85.7208 167.37 86.7288 167.688 87.4368 168.324C88.1448 168.96 88.4988 169.932 88.4988 171.24V177H86.8608ZM83.7288 177.108C83.0208 177.108 82.3968 176.988 81.8568 176.748C81.3288 176.508 80.9208 176.178 80.6328 175.758C80.3448 175.326 80.2008 174.84 80.2008 174.3C80.2008 173.784 80.3208 173.316 80.5608 172.896C80.8128 172.476 81.2148 172.14 81.7668 171.888C82.3308 171.636 83.0868 171.51 84.0348 171.51H87.0588V172.752H84.1068C83.2428 172.752 82.6608 172.896 82.3608 173.184C82.0608 173.472 81.9108 173.82 81.9108 174.228C81.9108 174.696 82.0968 175.074 82.4688 175.362C82.8408 175.638 83.3568 175.776 84.0168 175.776C84.6648 175.776 85.2288 175.632 85.7088 175.344C86.2008 175.056 86.5548 174.636 86.7708 174.084L87.1128 175.272C86.8848 175.836 86.4828 176.286 85.9068 176.622C85.3308 176.946 84.6048 177.108 83.7288 177.108ZM94.9726 177.108C94.0126 177.108 93.2686 176.85 92.7406 176.334C92.2126 175.818 91.9486 175.08 91.9486 174.12V165.372H93.6766V174.048C93.6766 174.564 93.8026 174.96 94.0546 175.236C94.3186 175.512 94.6906 175.65 95.1706 175.65C95.7106 175.65 96.1606 175.5 96.5206 175.2L97.0606 176.442C96.7966 176.67 96.4786 176.838 96.1066 176.946C95.7466 177.054 95.3686 177.108 94.9726 177.108ZM90.3286 168.882V167.46H96.4126V168.882H90.3286ZM99.1497 177V167.46H100.878V177H99.1497ZM100.014 165.624C99.6777 165.624 99.3957 165.516 99.1677 165.3C98.9517 165.084 98.8437 164.82 98.8437 164.508C98.8437 164.184 98.9517 163.914 99.1677 163.698C99.3957 163.482 99.6777 163.374 100.014 163.374C100.35 163.374 100.626 163.482 100.842 163.698C101.07 163.902 101.184 164.16 101.184 164.472C101.184 164.796 101.076 165.072 100.86 165.3C100.644 165.516 100.362 165.624 100.014 165.624ZM108.263 177.108C107.303 177.108 106.451 176.898 105.707 176.478C104.963 176.058 104.375 175.482 103.943 174.75C103.511 174.006 103.295 173.166 103.295 172.23C103.295 171.282 103.511 170.442 103.943 169.71C104.375 168.978 104.963 168.408 105.707 168C106.451 167.58 107.303 167.37 108.263 167.37C109.211 167.37 110.057 167.58 110.801 168C111.557 168.408 112.145 168.978 112.565 169.71C112.997 170.43 113.213 171.27 113.213 172.23C113.213 173.178 112.997 174.018 112.565 174.75C112.145 175.482 111.557 176.058 110.801 176.478C110.057 176.898 109.211 177.108 108.263 177.108ZM108.263 175.596C108.875 175.596 109.421 175.458 109.901 175.182C110.393 174.906 110.777 174.516 111.053 174.012C111.329 173.496 111.467 172.902 111.467 172.23C111.467 171.546 111.329 170.958 111.053 170.466C110.777 169.962 110.393 169.572 109.901 169.296C109.421 169.02 108.875 168.882 108.263 168.882C107.651 168.882 107.105 169.02 106.625 169.296C106.145 169.572 105.761 169.962 105.473 170.466C105.185 170.958 105.041 171.546 105.041 172.23C105.041 172.902 105.185 173.496 105.473 174.012C105.761 174.516 106.145 174.906 106.625 175.182C107.105 175.458 107.651 175.596 108.263 175.596ZM120.697 167.37C121.477 167.37 122.161 167.52 122.749 167.82C123.349 168.12 123.817 168.576 124.153 169.188C124.489 169.8 124.657 170.574 124.657 171.51V177H122.929V171.708C122.929 170.784 122.701 170.088 122.245 169.62C121.801 169.152 121.171 168.918 120.355 168.918C119.743 168.918 119.209 169.038 118.753 169.278C118.297 169.518 117.943 169.872 117.691 170.34C117.451 170.808 117.331 171.39 117.331 172.086V177H115.603V167.46H117.259V170.034L116.989 169.35C117.301 168.726 117.781 168.24 118.429 167.892C119.077 167.544 119.833 167.37 120.697 167.37ZM130.591 177.108C129.799 177.108 129.043 177 128.323 176.784C127.615 176.568 127.057 176.304 126.649 175.992L127.369 174.624C127.777 174.9 128.281 175.134 128.881 175.326C129.481 175.518 130.093 175.614 130.717 175.614C131.521 175.614 132.097 175.5 132.445 175.272C132.805 175.044 132.985 174.726 132.985 174.318C132.985 174.018 132.877 173.784 132.661 173.616C132.445 173.448 132.157 173.322 131.797 173.238C131.449 173.154 131.059 173.082 130.627 173.022C130.195 172.95 129.763 172.866 129.331 172.77C128.899 172.662 128.503 172.518 128.143 172.338C127.783 172.146 127.495 171.888 127.279 171.564C127.063 171.228 126.955 170.784 126.955 170.232C126.955 169.656 127.117 169.152 127.441 168.72C127.765 168.288 128.221 167.958 128.809 167.73C129.409 167.49 130.117 167.37 130.933 167.37C131.557 167.37 132.187 167.448 132.823 167.604C133.471 167.748 133.999 167.958 134.407 168.234L133.669 169.602C133.237 169.314 132.787 169.116 132.319 169.008C131.851 168.9 131.383 168.846 130.915 168.846C130.159 168.846 129.595 168.972 129.223 169.224C128.851 169.464 128.665 169.776 128.665 170.16C128.665 170.484 128.773 170.736 128.989 170.916C129.217 171.084 129.505 171.216 129.853 171.312C130.213 171.408 130.609 171.492 131.041 171.564C131.473 171.624 131.905 171.708 132.337 171.816C132.769 171.912 133.159 172.05 133.507 172.23C133.867 172.41 134.155 172.662 134.371 172.986C134.599 173.31 134.713 173.742 134.713 174.282C134.713 174.858 134.545 175.356 134.209 175.776C133.873 176.196 133.399 176.526 132.787 176.766C132.175 176.994 131.443 177.108 130.591 177.108ZM145.72 177.108C144.904 177.108 144.184 176.958 143.56 176.658C142.948 176.358 142.468 175.902 142.12 175.29C141.784 174.666 141.616 173.886 141.616 172.95V167.46H143.344V172.752C143.344 173.688 143.566 174.39 144.01 174.858C144.466 175.326 145.102 175.56 145.918 175.56C146.518 175.56 147.04 175.44 147.484 175.2C147.928 174.948 148.27 174.588 148.51 174.12C148.75 173.64 148.87 173.064 148.87 172.392V167.46H150.598V177H148.96V174.426L149.23 175.11C148.918 175.746 148.45 176.238 147.826 176.586C147.202 176.934 146.5 177.108 145.72 177.108ZM156.624 177.108C155.832 177.108 155.076 177 154.356 176.784C153.648 176.568 153.09 176.304 152.682 175.992L153.402 174.624C153.81 174.9 154.314 175.134 154.914 175.326C155.514 175.518 156.126 175.614 156.75 175.614C157.554 175.614 158.13 175.5 158.478 175.272C158.838 175.044 159.018 174.726 159.018 174.318C159.018 174.018 158.91 173.784 158.694 173.616C158.478 173.448 158.19 173.322 157.83 173.238C157.482 173.154 157.092 173.082 156.66 173.022C156.228 172.95 155.796 172.866 155.364 172.77C154.932 172.662 154.536 172.518 154.176 172.338C153.816 172.146 153.528 171.888 153.312 171.564C153.096 171.228 152.988 170.784 152.988 170.232C152.988 169.656 153.15 169.152 153.474 168.72C153.798 168.288 154.254 167.958 154.842 167.73C155.442 167.49 156.15 167.37 156.966 167.37C157.59 167.37 158.22 167.448 158.856 167.604C159.504 167.748 160.032 167.958 160.44 168.234L159.702 169.602C159.27 169.314 158.82 169.116 158.352 169.008C157.884 168.9 157.416 168.846 156.948 168.846C156.192 168.846 155.628 168.972 155.256 169.224C154.884 169.464 154.698 169.776 154.698 170.16C154.698 170.484 154.806 170.736 155.022 170.916C155.25 171.084 155.538 171.216 155.886 171.312C156.246 171.408 156.642 171.492 157.074 171.564C157.506 171.624 157.938 171.708 158.37 171.816C158.802 171.912 159.192 172.05 159.54 172.23C159.9 172.41 160.188 172.662 160.404 172.986C160.632 173.31 160.746 173.742 160.746 174.282C160.746 174.858 160.578 175.356 160.242 175.776C159.906 176.196 159.432 176.526 158.82 176.766C158.208 176.994 157.476 177.108 156.624 177.108ZM162.906 177V167.46H164.634V177H162.906ZM163.77 165.624C163.434 165.624 163.152 165.516 162.924 165.3C162.708 165.084 162.6 164.82 162.6 164.508C162.6 164.184 162.708 163.914 162.924 163.698C163.152 163.482 163.434 163.374 163.77 163.374C164.106 163.374 164.382 163.482 164.598 163.698C164.826 163.902 164.94 164.16 164.94 164.472C164.94 164.796 164.832 165.072 164.616 165.3C164.4 165.516 164.118 165.624 163.77 165.624ZM173.027 167.37C173.807 167.37 174.491 167.52 175.079 167.82C175.679 168.12 176.147 168.576 176.483 169.188C176.819 169.8 176.987 170.574 176.987 171.51V177H175.259V171.708C175.259 170.784 175.031 170.088 174.575 169.62C174.131 169.152 173.501 168.918 172.685 168.918C172.073 168.918 171.539 169.038 171.083 169.278C170.627 169.518 170.273 169.872 170.021 170.34C169.781 170.808 169.661 171.39 169.661 172.086V177H167.933V167.46H169.589V170.034L169.319 169.35C169.631 168.726 170.111 168.24 170.759 167.892C171.407 167.544 172.163 167.37 173.027 167.37ZM184.361 180.6C183.485 180.6 182.633 180.474 181.805 180.222C180.989 179.982 180.323 179.634 179.807 179.178L180.635 177.846C181.079 178.23 181.625 178.53 182.273 178.746C182.921 178.974 183.599 179.088 184.307 179.088C185.435 179.088 186.263 178.824 186.791 178.296C187.319 177.768 187.583 176.964 187.583 175.884V173.868L187.763 171.978L187.673 170.07V167.46H189.311V175.704C189.311 177.384 188.891 178.62 188.051 179.412C187.211 180.204 185.981 180.6 184.361 180.6ZM184.145 176.604C183.221 176.604 182.393 176.412 181.661 176.028C180.941 175.632 180.365 175.086 179.933 174.39C179.513 173.694 179.303 172.89 179.303 171.978C179.303 171.054 179.513 170.25 179.933 169.566C180.365 168.87 180.941 168.33 181.661 167.946C182.393 167.562 183.221 167.37 184.145 167.37C184.961 167.37 185.705 167.538 186.377 167.874C187.049 168.198 187.583 168.702 187.979 169.386C188.387 170.07 188.591 170.934 188.591 171.978C188.591 173.01 188.387 173.868 187.979 174.552C187.583 175.236 187.049 175.752 186.377 176.1C185.705 176.436 184.961 176.604 184.145 176.604ZM184.343 175.092C184.979 175.092 185.543 174.96 186.035 174.696C186.527 174.432 186.911 174.066 187.187 173.598C187.475 173.13 187.619 172.59 187.619 171.978C187.619 171.366 187.475 170.826 187.187 170.358C186.911 169.89 186.527 169.53 186.035 169.278C185.543 169.014 184.979 168.882 184.343 168.882C183.707 168.882 183.137 169.014 182.633 169.278C182.141 169.53 181.751 169.89 181.463 170.358C181.187 170.826 181.049 171.366 181.049 171.978C181.049 172.59 181.187 173.13 181.463 173.598C181.751 174.066 182.141 174.432 182.633 174.696C183.137 174.96 183.707 175.092 184.343 175.092ZM10.788 199L6.576 186.4H8.43L12.3 198.028H11.364L15.378 186.4H17.034L20.958 198.028H20.058L23.982 186.4H25.692L21.48 199H19.59L15.918 188.218H16.404L12.714 199H10.788ZM32.9996 189.37C33.7796 189.37 34.4636 189.52 35.0516 189.82C35.6516 190.12 36.1196 190.576 36.4556 191.188C36.7916 191.8 36.9596 192.574 36.9596 193.51V199H35.2316V193.708C35.2316 192.784 35.0036 192.088 34.5476 191.62C34.1036 191.152 33.4736 190.918 32.6576 190.918C32.0456 190.918 31.5116 191.038 31.0556 191.278C30.5996 191.518 30.2456 191.872 29.9936 192.34C29.7536 192.808 29.6336 193.39 29.6336 194.086V199H27.9056V185.644H29.6336V192.034L29.2916 191.35C29.6036 190.726 30.0836 190.24 30.7316 189.892C31.3796 189.544 32.1356 189.37 32.9996 189.37ZM46.0795 199V196.984L45.9895 196.606V193.168C45.9895 192.436 45.7735 191.872 45.3415 191.476C44.9215 191.068 44.2855 190.864 43.4335 190.864C42.8695 190.864 42.3175 190.96 41.7775 191.152C41.2375 191.332 40.7815 191.578 40.4095 191.89L39.6895 190.594C40.1815 190.198 40.7695 189.898 41.4535 189.694C42.1495 189.478 42.8755 189.37 43.6315 189.37C44.9395 189.37 45.9475 189.688 46.6555 190.324C47.3635 190.96 47.7175 191.932 47.7175 193.24V199H46.0795ZM42.9475 199.108C42.2395 199.108 41.6155 198.988 41.0755 198.748C40.5475 198.508 40.1395 198.178 39.8515 197.758C39.5635 197.326 39.4195 196.84 39.4195 196.3C39.4195 195.784 39.5395 195.316 39.7795 194.896C40.0315 194.476 40.4335 194.14 40.9855 193.888C41.5495 193.636 42.3055 193.51 43.2535 193.51H46.2775V194.752H43.3255C42.4615 194.752 41.8795 194.896 41.5795 195.184C41.2795 195.472 41.1295 195.82 41.1295 196.228C41.1295 196.696 41.3155 197.074 41.6875 197.362C42.0595 197.638 42.5755 197.776 43.2355 197.776C43.8835 197.776 44.4475 197.632 44.9275 197.344C45.4195 197.056 45.7735 196.636 45.9895 196.084L46.3315 197.272C46.1035 197.836 45.7015 198.286 45.1255 198.622C44.5495 198.946 43.8235 199.108 42.9475 199.108ZM54.1913 199.108C53.2313 199.108 52.4873 198.85 51.9593 198.334C51.4313 197.818 51.1673 197.08 51.1673 196.12V187.372H52.8953V196.048C52.8953 196.564 53.0213 196.96 53.2733 197.236C53.5373 197.512 53.9093 197.65 54.3893 197.65C54.9293 197.65 55.3793 197.5 55.7393 197.2L56.2793 198.442C56.0153 198.67 55.6973 198.838 55.3253 198.946C54.9653 199.054 54.5873 199.108 54.1913 199.108ZM49.5473 190.882V189.46H55.6313V190.882H49.5473ZM61.1045 199.108C60.3125 199.108 59.5565 199 58.8365 198.784C58.1285 198.568 57.5705 198.304 57.1625 197.992L57.8825 196.624C58.2905 196.9 58.7945 197.134 59.3945 197.326C59.9945 197.518 60.6065 197.614 61.2305 197.614C62.0345 197.614 62.6105 197.5 62.9585 197.272C63.3185 197.044 63.4985 196.726 63.4985 196.318C63.4985 196.018 63.3905 195.784 63.1745 195.616C62.9585 195.448 62.6705 195.322 62.3105 195.238C61.9625 195.154 61.5725 195.082 61.1405 195.022C60.7085 194.95 60.2765 194.866 59.8445 194.77C59.4125 194.662 59.0165 194.518 58.6565 194.338C58.2965 194.146 58.0085 193.888 57.7925 193.564C57.5765 193.228 57.4685 192.784 57.4685 192.232C57.4685 191.656 57.6305 191.152 57.9545 190.72C58.2785 190.288 58.7345 189.958 59.3225 189.73C59.9225 189.49 60.6305 189.37 61.4465 189.37C62.0705 189.37 62.7005 189.448 63.3365 189.604C63.9845 189.748 64.5125 189.958 64.9205 190.234L64.1825 191.602C63.7505 191.314 63.3005 191.116 62.8325 191.008C62.3645 190.9 61.8965 190.846 61.4285 190.846C60.6725 190.846 60.1085 190.972 59.7365 191.224C59.3645 191.464 59.1785 191.776 59.1785 192.16C59.1785 192.484 59.2865 192.736 59.5025 192.916C59.7305 193.084 60.0185 193.216 60.3665 193.312C60.7265 193.408 61.1225 193.492 61.5545 193.564C61.9865 193.624 62.4185 193.708 62.8505 193.816C63.2825 193.912 63.6725 194.05 64.0205 194.23C64.3805 194.41 64.6685 194.662 64.8845 194.986C65.1125 195.31 65.2265 195.742 65.2265 196.282C65.2265 196.858 65.0585 197.356 64.7225 197.776C64.3865 198.196 63.9125 198.526 63.3005 198.766C62.6885 198.994 61.9565 199.108 61.1045 199.108ZM65.73 199L71.436 186.4H73.218L78.942 199H77.052L71.958 187.408H72.678L67.584 199H65.73ZM68.16 195.85L68.646 194.41H75.738L76.26 195.85H68.16ZM85.6276 199.108C84.8356 199.108 84.1096 198.928 83.4496 198.568C82.8016 198.196 82.2796 197.65 81.8836 196.93C81.4996 196.21 81.3076 195.31 81.3076 194.23C81.3076 193.15 81.4936 192.25 81.8656 191.53C82.2496 190.81 82.7656 190.27 83.4136 189.91C84.0736 189.55 84.8116 189.37 85.6276 189.37C86.5636 189.37 87.3916 189.574 88.1116 189.982C88.8316 190.39 89.4016 190.96 89.8216 191.692C90.2416 192.412 90.4516 193.258 90.4516 194.23C90.4516 195.202 90.2416 196.054 89.8216 196.786C89.4016 197.518 88.8316 198.088 88.1116 198.496C87.3916 198.904 86.5636 199.108 85.6276 199.108ZM80.5696 202.492V189.46H82.2256V192.034L82.1176 194.248L82.2976 196.462V202.492H80.5696ZM85.4836 197.596C86.0956 197.596 86.6416 197.458 87.1216 197.182C87.6136 196.906 87.9976 196.516 88.2736 196.012C88.5616 195.496 88.7056 194.902 88.7056 194.23C88.7056 193.546 88.5616 192.958 88.2736 192.466C87.9976 191.962 87.6136 191.572 87.1216 191.296C86.6416 191.02 86.0956 190.882 85.4836 190.882C84.8836 190.882 84.3376 191.02 83.8456 191.296C83.3656 191.572 82.9816 191.962 82.6936 192.466C82.4176 192.958 82.2796 193.546 82.2796 194.23C82.2796 194.902 82.4176 195.496 82.6936 196.012C82.9816 196.516 83.3656 196.906 83.8456 197.182C84.3376 197.458 84.8836 197.596 85.4836 197.596ZM97.8972 199.108C97.1052 199.108 96.3792 198.928 95.7192 198.568C95.0712 198.196 94.5492 197.65 94.1532 196.93C93.7692 196.21 93.5772 195.31 93.5772 194.23C93.5772 193.15 93.7632 192.25 94.1352 191.53C94.5192 190.81 95.0352 190.27 95.6832 189.91C96.3432 189.55 97.0812 189.37 97.8972 189.37C98.8332 189.37 99.6612 189.574 100.381 189.982C101.101 190.39 101.671 190.96 102.091 191.692C102.511 192.412 102.721 193.258 102.721 194.23C102.721 195.202 102.511 196.054 102.091 196.786C101.671 197.518 101.101 198.088 100.381 198.496C99.6612 198.904 98.8332 199.108 97.8972 199.108ZM92.8392 202.492V189.46H94.4952V192.034L94.3872 194.248L94.5672 196.462V202.492H92.8392ZM97.7532 197.596C98.3652 197.596 98.9112 197.458 99.3912 197.182C99.8832 196.906 100.267 196.516 100.543 196.012C100.831 195.496 100.975 194.902 100.975 194.23C100.975 193.546 100.831 192.958 100.543 192.466C100.267 191.962 99.8832 191.572 99.3912 191.296C98.9112 191.02 98.3652 190.882 97.7532 190.882C97.1532 190.882 96.6072 191.02 96.1152 191.296C95.6352 191.572 95.2512 191.962 94.9632 192.466C94.6872 192.958 94.5492 193.546 94.5492 194.23C94.5492 194.902 94.6872 195.496 94.9632 196.012C95.2512 196.516 95.6352 196.906 96.1152 197.182C96.6072 197.458 97.1532 197.596 97.7532 197.596ZM112.697 199V187.966H108.377V186.4H118.799V187.966H114.479V199H112.697ZM123.771 199.108C122.751 199.108 121.851 198.898 121.071 198.478C120.303 198.058 119.703 197.482 119.271 196.75C118.851 196.018 118.641 195.178 118.641 194.23C118.641 193.282 118.845 192.442 119.253 191.71C119.673 190.978 120.243 190.408 120.963 190C121.695 189.58 122.517 189.37 123.429 189.37C124.353 189.37 125.169 189.574 125.877 189.982C126.585 190.39 127.137 190.966 127.533 191.71C127.941 192.442 128.145 193.3 128.145 194.284C128.145 194.356 128.139 194.44 128.127 194.536C128.127 194.632 128.121 194.722 128.109 194.806H119.991V193.564H127.209L126.507 193.996C126.519 193.384 126.393 192.838 126.129 192.358C125.865 191.878 125.499 191.506 125.031 191.242C124.575 190.966 124.041 190.828 123.429 190.828C122.829 190.828 122.295 190.966 121.827 191.242C121.359 191.506 120.993 191.884 120.729 192.376C120.465 192.856 120.333 193.408 120.333 194.032V194.32C120.333 194.956 120.477 195.526 120.765 196.03C121.065 196.522 121.479 196.906 122.007 197.182C122.535 197.458 123.141 197.596 123.825 197.596C124.389 197.596 124.899 197.5 125.355 197.308C125.823 197.116 126.231 196.828 126.579 196.444L127.533 197.56C127.101 198.064 126.561 198.448 125.913 198.712C125.277 198.976 124.563 199.108 123.771 199.108ZM142.478 189.37C143.246 189.37 143.924 189.52 144.512 189.82C145.1 190.12 145.556 190.576 145.88 191.188C146.216 191.8 146.384 192.574 146.384 193.51V199H144.656V193.708C144.656 192.784 144.44 192.088 144.008 191.62C143.576 191.152 142.97 190.918 142.19 190.918C141.614 190.918 141.11 191.038 140.678 191.278C140.246 191.518 139.91 191.872 139.67 192.34C139.442 192.808 139.328 193.39 139.328 194.086V199H137.6V193.708C137.6 192.784 137.384 192.088 136.952 191.62C136.532 191.152 135.926 190.918 135.134 190.918C134.57 190.918 134.072 191.038 133.64 191.278C133.208 191.518 132.872 191.872 132.632 192.34C132.392 192.808 132.272 193.39 132.272 194.086V199H130.544V189.46H132.2V191.998L131.93 191.35C132.23 190.726 132.692 190.24 133.316 189.892C133.94 189.544 134.666 189.37 135.494 189.37C136.406 189.37 137.192 189.598 137.852 190.054C138.512 190.498 138.944 191.176 139.148 192.088L138.446 191.8C138.734 191.068 139.238 190.48 139.958 190.036C140.678 189.592 141.518 189.37 142.478 189.37ZM154.622 199.108C153.83 199.108 153.104 198.928 152.444 198.568C151.796 198.196 151.274 197.65 150.878 196.93C150.494 196.21 150.302 195.31 150.302 194.23C150.302 193.15 150.488 192.25 150.86 191.53C151.244 190.81 151.76 190.27 152.408 189.91C153.068 189.55 153.806 189.37 154.622 189.37C155.558 189.37 156.386 189.574 157.106 189.982C157.826 190.39 158.396 190.96 158.816 191.692C159.236 192.412 159.446 193.258 159.446 194.23C159.446 195.202 159.236 196.054 158.816 196.786C158.396 197.518 157.826 198.088 157.106 198.496C156.386 198.904 155.558 199.108 154.622 199.108ZM149.564 202.492V189.46H151.22V192.034L151.112 194.248L151.292 196.462V202.492H149.564ZM154.478 197.596C155.09 197.596 155.636 197.458 156.116 197.182C156.608 196.906 156.992 196.516 157.268 196.012C157.556 195.496 157.7 194.902 157.7 194.23C157.7 193.546 157.556 192.958 157.268 192.466C156.992 191.962 156.608 191.572 156.116 191.296C155.636 191.02 155.09 190.882 154.478 190.882C153.878 190.882 153.332 191.02 152.84 191.296C152.36 191.572 151.976 191.962 151.688 192.466C151.412 192.958 151.274 193.546 151.274 194.23C151.274 194.902 151.412 195.496 151.688 196.012C151.976 196.516 152.36 196.906 152.84 197.182C153.332 197.458 153.878 197.596 154.478 197.596ZM161.833 199V185.644H163.561V199H161.833ZM172.783 199V196.984L172.693 196.606V193.168C172.693 192.436 172.477 191.872 172.045 191.476C171.625 191.068 170.989 190.864 170.137 190.864C169.573 190.864 169.021 190.96 168.481 191.152C167.941 191.332 167.485 191.578 167.113 191.89L166.393 190.594C166.885 190.198 167.473 189.898 168.157 189.694C168.853 189.478 169.579 189.37 170.335 189.37C171.643 189.37 172.651 189.688 173.359 190.324C174.067 190.96 174.421 191.932 174.421 193.24V199H172.783ZM169.651 199.108C168.943 199.108 168.319 198.988 167.779 198.748C167.251 198.508 166.843 198.178 166.555 197.758C166.267 197.326 166.123 196.84 166.123 196.3C166.123 195.784 166.243 195.316 166.483 194.896C166.735 194.476 167.137 194.14 167.689 193.888C168.253 193.636 169.009 193.51 169.957 193.51H172.981V194.752H170.029C169.165 194.752 168.583 194.896 168.283 195.184C167.983 195.472 167.833 195.82 167.833 196.228C167.833 196.696 168.019 197.074 168.391 197.362C168.763 197.638 169.279 197.776 169.939 197.776C170.587 197.776 171.151 197.632 171.631 197.344C172.123 197.056 172.477 196.636 172.693 196.084L173.035 197.272C172.807 197.836 172.405 198.286 171.829 198.622C171.253 198.946 170.527 199.108 169.651 199.108ZM180.894 199.108C179.934 199.108 179.19 198.85 178.662 198.334C178.134 197.818 177.87 197.08 177.87 196.12V187.372H179.598V196.048C179.598 196.564 179.724 196.96 179.976 197.236C180.24 197.512 180.612 197.65 181.092 197.65C181.632 197.65 182.082 197.5 182.442 197.2L182.982 198.442C182.718 198.67 182.4 198.838 182.028 198.946C181.668 199.054 181.29 199.108 180.894 199.108ZM176.25 190.882V189.46H182.334V190.882H176.25ZM189.003 199.108C187.983 199.108 187.083 198.898 186.303 198.478C185.535 198.058 184.935 197.482 184.503 196.75C184.083 196.018 183.873 195.178 183.873 194.23C183.873 193.282 184.077 192.442 184.485 191.71C184.905 190.978 185.475 190.408 186.195 190C186.927 189.58 187.749 189.37 188.661 189.37C189.585 189.37 190.401 189.574 191.109 189.982C191.817 190.39 192.369 190.966 192.765 191.71C193.173 192.442 193.377 193.3 193.377 194.284C193.377 194.356 193.371 194.44 193.359 194.536C193.359 194.632 193.353 194.722 193.341 194.806H185.223V193.564H192.441L191.739 193.996C191.751 193.384 191.625 192.838 191.361 192.358C191.097 191.878 190.731 191.506 190.263 191.242C189.807 190.966 189.273 190.828 188.661 190.828C188.061 190.828 187.527 190.966 187.059 191.242C186.591 191.506 186.225 191.884 185.961 192.376C185.697 192.856 185.565 193.408 185.565 194.032V194.32C185.565 194.956 185.709 195.526 185.997 196.03C186.297 196.522 186.711 196.906 187.239 197.182C187.767 197.458 188.373 197.596 189.057 197.596C189.621 197.596 190.131 197.5 190.587 197.308C191.055 197.116 191.463 196.828 191.811 196.444L192.765 197.56C192.333 198.064 191.793 198.448 191.145 198.712C190.509 198.976 189.795 199.108 189.003 199.108ZM198.513 199.108C197.721 199.108 196.965 199 196.245 198.784C195.537 198.568 194.979 198.304 194.571 197.992L195.291 196.624C195.699 196.9 196.203 197.134 196.803 197.326C197.403 197.518 198.015 197.614 198.639 197.614C199.443 197.614 200.019 197.5 200.367 197.272C200.727 197.044 200.907 196.726 200.907 196.318C200.907 196.018 200.799 195.784 200.583 195.616C200.367 195.448 200.079 195.322 199.719 195.238C199.371 195.154 198.981 195.082 198.549 195.022C198.117 194.95 197.685 194.866 197.253 194.77C196.821 194.662 196.425 194.518 196.065 194.338C195.705 194.146 195.417 193.888 195.201 193.564C194.985 193.228 194.877 192.784 194.877 192.232C194.877 191.656 195.039 191.152 195.363 190.72C195.687 190.288 196.143 189.958 196.731 189.73C197.331 189.49 198.039 189.37 198.855 189.37C199.479 189.37 200.109 189.448 200.745 189.604C201.393 189.748 201.921 189.958 202.329 190.234L201.591 191.602C201.159 191.314 200.709 191.116 200.241 191.008C199.773 190.9 199.305 190.846 198.837 190.846C198.081 190.846 197.517 190.972 197.145 191.224C196.773 191.464 196.587 191.776 196.587 192.16C196.587 192.484 196.695 192.736 196.911 192.916C197.139 193.084 197.427 193.216 197.775 193.312C198.135 193.408 198.531 193.492 198.963 193.564C199.395 193.624 199.827 193.708 200.259 193.816C200.691 193.912 201.081 194.05 201.429 194.23C201.789 194.41 202.077 194.662 202.293 194.986C202.521 195.31 202.635 195.742 202.635 196.282C202.635 196.858 202.467 197.356 202.131 197.776C201.795 198.196 201.321 198.526 200.709 198.766C200.097 198.994 199.365 199.108 198.513 199.108ZM209.628 199V189.46H211.356V199H209.628ZM210.492 187.624C210.156 187.624 209.874 187.516 209.646 187.3C209.43 187.084 209.322 186.82 209.322 186.508C209.322 186.184 209.43 185.914 209.646 185.698C209.874 185.482 210.156 185.374 210.492 185.374C210.828 185.374 211.104 185.482 211.32 185.698C211.548 185.902 211.662 186.16 211.662 186.472C211.662 186.796 211.554 187.072 211.338 187.3C211.122 187.516 210.84 187.624 210.492 187.624ZM219.75 189.37C220.53 189.37 221.214 189.52 221.802 189.82C222.402 190.12 222.87 190.576 223.206 191.188C223.542 191.8 223.71 192.574 223.71 193.51V199H221.982V193.708C221.982 192.784 221.754 192.088 221.298 191.62C220.854 191.152 220.224 190.918 219.408 190.918C218.796 190.918 218.262 191.038 217.806 191.278C217.35 191.518 216.996 191.872 216.744 192.34C216.504 192.808 216.384 193.39 216.384 194.086V199H214.656V189.46H216.312V192.034L216.042 191.35C216.354 190.726 216.834 190.24 217.482 189.892C218.13 189.544 218.886 189.37 219.75 189.37ZM7.89 221V210.614C7.89 209.678 8.16 208.934 8.7 208.382C9.252 207.818 10.032 207.536 11.04 207.536C11.412 207.536 11.766 207.584 12.102 207.68C12.45 207.764 12.744 207.902 12.984 208.094L12.462 209.408C12.282 209.264 12.078 209.156 11.85 209.084C11.622 209 11.382 208.958 11.13 208.958C10.626 208.958 10.242 209.102 9.978 209.39C9.714 209.666 9.582 210.08 9.582 210.632V211.91L9.618 212.702V221H7.89ZM6.27 212.882V211.46H12.354V212.882H6.27ZM17.9977 221.108C17.1817 221.108 16.4617 220.958 15.8377 220.658C15.2257 220.358 14.7457 219.902 14.3977 219.29C14.0617 218.666 13.8937 217.886 13.8937 216.95V211.46H15.6217V216.752C15.6217 217.688 15.8437 218.39 16.2877 218.858C16.7437 219.326 17.3797 219.56 18.1957 219.56C18.7957 219.56 19.3177 219.44 19.7617 219.2C20.2057 218.948 20.5477 218.588 20.7877 218.12C21.0277 217.64 21.1477 217.064 21.1477 216.392V211.46H22.8757V221H21.2377V218.426L21.5077 219.11C21.1957 219.746 20.7277 220.238 20.1037 220.586C19.4797 220.934 18.7777 221.108 17.9977 221.108ZM26.1653 221V207.644H27.8933V221H26.1653ZM31.1927 221V207.644H32.9207V221H31.1927ZM35.608 216.806V215.312H40.45V216.806H35.608ZM48.1966 221V210.614C48.1966 209.678 48.4666 208.934 49.0066 208.382C49.5586 207.818 50.3386 207.536 51.3466 207.536C51.7186 207.536 52.0726 207.584 52.4086 207.68C52.7566 207.764 53.0506 207.902 53.2906 208.094L52.7686 209.408C52.5886 209.264 52.3846 209.156 52.1566 209.084C51.9286 209 51.6886 208.958 51.4366 208.958C50.9326 208.958 50.5486 209.102 50.2846 209.39C50.0206 209.666 49.8886 210.08 49.8886 210.632V211.91L49.9246 212.702V221H48.1966ZM46.5766 212.882V211.46H52.6606V212.882H46.5766ZM58.3043 221.108C57.4883 221.108 56.7683 220.958 56.1443 220.658C55.5323 220.358 55.0523 219.902 54.7043 219.29C54.3683 218.666 54.2003 217.886 54.2003 216.95V211.46H55.9283V216.752C55.9283 217.688 56.1503 218.39 56.5943 218.858C57.0503 219.326 57.6863 219.56 58.5023 219.56C59.1023 219.56 59.6243 219.44 60.0683 219.2C60.5123 218.948 60.8543 218.588 61.0943 218.12C61.3343 217.64 61.4543 217.064 61.4543 216.392V211.46H63.1823V221H61.5443V218.426L61.8143 219.11C61.5023 219.746 61.0343 220.238 60.4103 220.586C59.7863 220.934 59.0843 221.108 58.3043 221.108ZM71.566 211.37C72.346 211.37 73.03 211.52 73.618 211.82C74.218 212.12 74.686 212.576 75.022 213.188C75.358 213.8 75.526 214.574 75.526 215.51V221H73.798V215.708C73.798 214.784 73.57 214.088 73.114 213.62C72.67 213.152 72.04 212.918 71.224 212.918C70.612 212.918 70.078 213.038 69.622 213.278C69.166 213.518 68.812 213.872 68.56 214.34C68.32 214.808 68.2 215.39 68.2 216.086V221H66.472V211.46H68.128V214.034L67.858 213.35C68.17 212.726 68.65 212.24 69.298 211.892C69.946 211.544 70.702 211.37 71.566 211.37ZM83.8179 211.37C84.5979 211.37 85.2819 211.52 85.8699 211.82C86.4699 212.12 86.9379 212.576 87.2739 213.188C87.6099 213.8 87.7779 214.574 87.7779 215.51V221H86.0499V215.708C86.0499 214.784 85.8219 214.088 85.3659 213.62C84.9219 213.152 84.2919 212.918 83.4759 212.918C82.8639 212.918 82.3299 213.038 81.8739 213.278C81.4179 213.518 81.0639 213.872 80.8119 214.34C80.5719 214.808 80.4519 215.39 80.4519 216.086V221H78.7239V211.46H80.3799V214.034L80.1099 213.35C80.4219 212.726 80.9019 212.24 81.5499 211.892C82.1979 211.544 82.9539 211.37 83.8179 211.37ZM95.2239 221.108C94.2039 221.108 93.3039 220.898 92.5239 220.478C91.7559 220.058 91.1559 219.482 90.7239 218.75C90.3039 218.018 90.0939 217.178 90.0939 216.23C90.0939 215.282 90.2979 214.442 90.7059 213.71C91.1259 212.978 91.6959 212.408 92.4159 212C93.1479 211.58 93.9699 211.37 94.8819 211.37C95.8059 211.37 96.6219 211.574 97.3299 211.982C98.0379 212.39 98.5899 212.966 98.9859 213.71C99.3939 214.442 99.5979 215.3 99.5979 216.284C99.5979 216.356 99.5919 216.44 99.5799 216.536C99.5799 216.632 99.5739 216.722 99.5619 216.806H91.4439V215.564H98.6619L97.9599 215.996C97.9719 215.384 97.8459 214.838 97.5819 214.358C97.3179 213.878 96.9519 213.506 96.4839 213.242C96.0279 212.966 95.4939 212.828 94.8819 212.828C94.2819 212.828 93.7479 212.966 93.2799 213.242C92.8119 213.506 92.4459 213.884 92.1819 214.376C91.9179 214.856 91.7859 215.408 91.7859 216.032V216.32C91.7859 216.956 91.9299 217.526 92.2179 218.03C92.5179 218.522 92.9319 218.906 93.4599 219.182C93.9879 219.458 94.5939 219.596 95.2779 219.596C95.8419 219.596 96.3519 219.5 96.8079 219.308C97.2759 219.116 97.6839 218.828 98.0319 218.444L98.9859 219.56C98.5539 220.064 98.0139 220.448 97.3659 220.712C96.7299 220.976 96.0159 221.108 95.2239 221.108ZM101.997 221V207.644H103.725V221H101.997ZM116.017 221.108C115.045 221.108 114.175 220.898 113.407 220.478C112.651 220.058 112.057 219.482 111.625 218.75C111.193 218.018 110.977 217.178 110.977 216.23C110.977 215.282 111.193 214.442 111.625 213.71C112.057 212.978 112.651 212.408 113.407 212C114.175 211.58 115.045 211.37 116.017 211.37C116.881 211.37 117.649 211.544 118.321 211.892C119.005 212.228 119.533 212.732 119.905 213.404L118.591 214.25C118.279 213.782 117.895 213.44 117.439 213.224C116.995 212.996 116.515 212.882 115.999 212.882C115.375 212.882 114.817 213.02 114.325 213.296C113.833 213.572 113.443 213.962 113.155 214.466C112.867 214.958 112.723 215.546 112.723 216.23C112.723 216.914 112.867 217.508 113.155 218.012C113.443 218.516 113.833 218.906 114.325 219.182C114.817 219.458 115.375 219.596 115.999 219.596C116.515 219.596 116.995 219.488 117.439 219.272C117.895 219.044 118.279 218.696 118.591 218.228L119.905 219.056C119.533 219.716 119.005 220.226 118.321 220.586C117.649 220.934 116.881 221.108 116.017 221.108ZM126.087 221.108C125.127 221.108 124.275 220.898 123.531 220.478C122.787 220.058 122.199 219.482 121.767 218.75C121.335 218.006 121.119 217.166 121.119 216.23C121.119 215.282 121.335 214.442 121.767 213.71C122.199 212.978 122.787 212.408 123.531 212C124.275 211.58 125.127 211.37 126.087 211.37C127.035 211.37 127.881 211.58 128.625 212C129.381 212.408 129.969 212.978 130.389 213.71C130.821 214.43 131.037 215.27 131.037 216.23C131.037 217.178 130.821 218.018 130.389 218.75C129.969 219.482 129.381 220.058 128.625 220.478C127.881 220.898 127.035 221.108 126.087 221.108ZM126.087 219.596C126.699 219.596 127.245 219.458 127.725 219.182C128.217 218.906 128.601 218.516 128.877 218.012C129.153 217.496 129.291 216.902 129.291 216.23C129.291 215.546 129.153 214.958 128.877 214.466C128.601 213.962 128.217 213.572 127.725 213.296C127.245 213.02 126.699 212.882 126.087 212.882C125.475 212.882 124.929 213.02 124.449 213.296C123.969 213.572 123.585 213.962 123.297 214.466C123.009 214.958 122.865 215.546 122.865 216.23C122.865 216.902 123.009 217.496 123.297 218.012C123.585 218.516 123.969 218.906 124.449 219.182C124.929 219.458 125.475 219.596 126.087 219.596ZM138.521 211.37C139.301 211.37 139.985 211.52 140.573 211.82C141.173 212.12 141.641 212.576 141.977 213.188C142.313 213.8 142.481 214.574 142.481 215.51V221H140.753V215.708C140.753 214.784 140.525 214.088 140.069 213.62C139.625 213.152 138.995 212.918 138.179 212.918C137.567 212.918 137.033 213.038 136.577 213.278C136.121 213.518 135.767 213.872 135.515 214.34C135.275 214.808 135.155 215.39 135.155 216.086V221H133.427V211.46H135.083V214.034L134.813 213.35C135.125 212.726 135.605 212.24 136.253 211.892C136.901 211.544 137.657 211.37 138.521 211.37ZM148.005 221L143.829 211.46H145.629L149.337 220.1H148.473L152.253 211.46H153.945L149.769 221H148.005ZM159.542 221.108C158.522 221.108 157.622 220.898 156.842 220.478C156.074 220.058 155.474 219.482 155.042 218.75C154.622 218.018 154.412 217.178 154.412 216.23C154.412 215.282 154.616 214.442 155.024 213.71C155.444 212.978 156.014 212.408 156.734 212C157.466 211.58 158.288 211.37 159.2 211.37C160.124 211.37 160.94 211.574 161.648 211.982C162.356 212.39 162.908 212.966 163.304 213.71C163.712 214.442 163.916 215.3 163.916 216.284C163.916 216.356 163.91 216.44 163.898 216.536C163.898 216.632 163.892 216.722 163.88 216.806H155.762V215.564H162.98L162.278 215.996C162.29 215.384 162.164 214.838 161.9 214.358C161.636 213.878 161.27 213.506 160.802 213.242C160.346 212.966 159.812 212.828 159.2 212.828C158.6 212.828 158.066 212.966 157.598 213.242C157.13 213.506 156.764 213.884 156.5 214.376C156.236 214.856 156.104 215.408 156.104 216.032V216.32C156.104 216.956 156.248 217.526 156.536 218.03C156.836 218.522 157.25 218.906 157.778 219.182C158.306 219.458 158.912 219.596 159.596 219.596C160.16 219.596 160.67 219.5 161.126 219.308C161.594 219.116 162.002 218.828 162.35 218.444L163.304 219.56C162.872 220.064 162.332 220.448 161.684 220.712C161.048 220.976 160.334 221.108 159.542 221.108ZM166.316 221V211.46H167.972V214.052L167.81 213.404C168.074 212.744 168.518 212.24 169.142 211.892C169.766 211.544 170.534 211.37 171.446 211.37V213.044C171.374 213.032 171.302 213.026 171.23 213.026C171.17 213.026 171.11 213.026 171.05 213.026C170.126 213.026 169.394 213.302 168.854 213.854C168.314 214.406 168.044 215.204 168.044 216.248V221H166.316ZM176.417 221.108C175.625 221.108 174.869 221 174.149 220.784C173.441 220.568 172.883 220.304 172.475 219.992L173.195 218.624C173.603 218.9 174.107 219.134 174.707 219.326C175.307 219.518 175.919 219.614 176.543 219.614C177.347 219.614 177.923 219.5 178.271 219.272C178.631 219.044 178.811 218.726 178.811 218.318C178.811 218.018 178.703 217.784 178.487 217.616C178.271 217.448 177.983 217.322 177.623 217.238C177.275 217.154 176.885 217.082 176.453 217.022C176.021 216.95 175.589 216.866 175.157 216.77C174.725 216.662 174.329 216.518 173.969 216.338C173.609 216.146 173.321 215.888 173.105 215.564C172.889 215.228 172.781 214.784 172.781 214.232C172.781 213.656 172.943 213.152 173.267 212.72C173.591 212.288 174.047 211.958 174.635 211.73C175.235 211.49 175.943 211.37 176.759 211.37C177.383 211.37 178.013 211.448 178.649 211.604C179.297 211.748 179.825 211.958 180.233 212.234L179.495 213.602C179.063 213.314 178.613 213.116 178.145 213.008C177.677 212.9 177.209 212.846 176.741 212.846C175.985 212.846 175.421 212.972 175.049 213.224C174.677 213.464 174.491 213.776 174.491 214.16C174.491 214.484 174.599 214.736 174.815 214.916C175.043 215.084 175.331 215.216 175.679 215.312C176.039 215.408 176.435 215.492 176.867 215.564C177.299 215.624 177.731 215.708 178.163 215.816C178.595 215.912 178.985 216.05 179.333 216.23C179.693 216.41 179.981 216.662 180.197 216.986C180.425 217.31 180.539 217.742 180.539 218.282C180.539 218.858 180.371 219.356 180.035 219.776C179.699 220.196 179.225 220.526 178.613 220.766C178.001 220.994 177.269 221.108 176.417 221.108ZM182.699 221V211.46H184.427V221H182.699ZM183.563 209.624C183.227 209.624 182.945 209.516 182.717 209.3C182.501 209.084 182.393 208.82 182.393 208.508C182.393 208.184 182.501 207.914 182.717 207.698C182.945 207.482 183.227 207.374 183.563 207.374C183.899 207.374 184.175 207.482 184.391 207.698C184.619 207.902 184.733 208.16 184.733 208.472C184.733 208.796 184.625 209.072 184.409 209.3C184.193 209.516 183.911 209.624 183.563 209.624ZM191.812 221.108C190.852 221.108 190 220.898 189.256 220.478C188.512 220.058 187.924 219.482 187.492 218.75C187.06 218.006 186.844 217.166 186.844 216.23C186.844 215.282 187.06 214.442 187.492 213.71C187.924 212.978 188.512 212.408 189.256 212C190 211.58 190.852 211.37 191.812 211.37C192.76 211.37 193.606 211.58 194.35 212C195.106 212.408 195.694 212.978 196.114 213.71C196.546 214.43 196.762 215.27 196.762 216.23C196.762 217.178 196.546 218.018 196.114 218.75C195.694 219.482 195.106 220.058 194.35 220.478C193.606 220.898 192.76 221.108 191.812 221.108ZM191.812 219.596C192.424 219.596 192.97 219.458 193.45 219.182C193.942 218.906 194.326 218.516 194.602 218.012C194.878 217.496 195.016 216.902 195.016 216.23C195.016 215.546 194.878 214.958 194.602 214.466C194.326 213.962 193.942 213.572 193.45 213.296C192.97 213.02 192.424 212.882 191.812 212.882C191.2 212.882 190.654 213.02 190.174 213.296C189.694 213.572 189.31 213.962 189.022 214.466C188.734 214.958 188.59 215.546 188.59 216.23C188.59 216.902 188.734 217.496 189.022 218.012C189.31 218.516 189.694 218.906 190.174 219.182C190.654 219.458 191.2 219.596 191.812 219.596ZM204.246 211.37C205.026 211.37 205.71 211.52 206.298 211.82C206.898 212.12 207.366 212.576 207.702 213.188C208.038 213.8 208.206 214.574 208.206 215.51V221H206.478V215.708C206.478 214.784 206.25 214.088 205.794 213.62C205.35 213.152 204.72 212.918 203.904 212.918C203.292 212.918 202.758 213.038 202.302 213.278C201.846 213.518 201.492 213.872 201.24 214.34C201 214.808 200.88 215.39 200.88 216.086V221H199.152V211.46H200.808V214.034L200.538 213.35C200.85 212.726 201.33 212.24 201.978 211.892C202.626 211.544 203.382 211.37 204.246 211.37ZM214.14 221.108C213.348 221.108 212.592 221 211.872 220.784C211.164 220.568 210.606 220.304 210.198 219.992L210.918 218.624C211.326 218.9 211.83 219.134 212.43 219.326C213.03 219.518 213.642 219.614 214.266 219.614C215.07 219.614 215.646 219.5 215.994 219.272C216.354 219.044 216.534 218.726 216.534 218.318C216.534 218.018 216.426 217.784 216.21 217.616C215.994 217.448 215.706 217.322 215.346 217.238C214.998 217.154 214.608 217.082 214.176 217.022C213.744 216.95 213.312 216.866 212.88 216.77C212.448 216.662 212.052 216.518 211.692 216.338C211.332 216.146 211.044 215.888 210.828 215.564C210.612 215.228 210.504 214.784 210.504 214.232C210.504 213.656 210.666 213.152 210.99 212.72C211.314 212.288 211.77 211.958 212.358 211.73C212.958 211.49 213.666 211.37 214.482 211.37C215.106 211.37 215.736 211.448 216.372 211.604C217.02 211.748 217.548 211.958 217.956 212.234L217.218 213.602C216.786 213.314 216.336 213.116 215.868 213.008C215.4 212.9 214.932 212.846 214.464 212.846C213.708 212.846 213.144 212.972 212.772 213.224C212.4 213.464 212.214 213.776 212.214 214.16C212.214 214.484 212.322 214.736 212.538 214.916C212.766 215.084 213.054 215.216 213.402 215.312C213.762 215.408 214.158 215.492 214.59 215.564C215.022 215.624 215.454 215.708 215.886 215.816C216.318 215.912 216.708 216.05 217.056 216.23C217.416 216.41 217.704 216.662 217.92 216.986C218.148 217.31 218.262 217.742 218.262 218.282C218.262 218.858 218.094 219.356 217.758 219.776C217.422 220.196 216.948 220.526 216.336 220.766C215.724 220.994 214.992 221.108 214.14 221.108Z" fill="#777777"/>
<defs>
<filter id="filter0_d_1_409" x="0" y="0" width="92" height="92" filterUnits="userSpaceOnUse" color-interpolation-filters="sRGB">
<feFlood flood-opacity="0" result="BackgroundImageFix"/>
<feColorMatrix in="SourceAlpha" type="matrix" values="0 0 0 0 0 0 0 0 0 0 0 0 0 0 0 0 0 0 127 0" result="hardAlpha"/>
<feOffset dx="4" dy="4"/>
<feGaussianBlur stdDeviation="5"/>
<feComposite in2="hardAlpha" operator="out"/>
<feColorMatrix type="matrix" values="0 0 0 0 0.858333 0 0 0 0 0.858333 0 0 0 0 0.858333 0 0 0 0.25 0"/>
<feBlend mode="normal" in2="BackgroundImageFix" result="effect1_dropShadow_1_409"/>
<feBlend mode="normal" in="SourceGraphic" in2="effect1_dropShadow_1_409" result="shape"/>
</filter>
<linearGradient id="paint0_linear_1_409" x1="6" y1="6" x2="232.921" y2="252.743" gradientUnits="userSpaceOnUse">
<stop stop-color="#D9D9D9"/>
<stop offset="1" stop-color="#D9D9D9" stop-opacity="0"/>
</linearGradient>
</defs>
</svg>
