<svg width="92" height="92" viewBox="0 0 92 92" fill="none" xmlns="http://www.w3.org/2000/svg">
<g filter="url(#filter0_d_1_421)">
<rect x="6" y="6" width="72" height="72" rx="8" fill="#DFEEEE" shape-rendering="crispEdges"/>
<path d="M25.6666 42C25.0477 42 24.4543 42.2458 24.0167 42.6834C23.5791 43.121 23.3333 43.7145 23.3333 44.3333V63C23.3333 63.6188 23.5791 64.2123 24.0167 64.6499C24.4543 65.0875 25.0477 65.3333 25.6666 65.3333C26.2854 65.3333 26.8789 65.0875 27.3165 64.6499C27.7541 64.2123 27.9999 63.6188 27.9999 63V44.3333C27.9999 43.7145 27.7541 43.121 27.3165 42.6834C26.8789 42.2458 26.2854 42 25.6666 42ZM37.3333 18.6666C36.7144 18.6666 36.1209 18.9125 35.6833 19.35C35.2458 19.7876 34.9999 20.3811 34.9999 21V63C34.9999 63.6188 35.2458 64.2123 35.6833 64.6499C36.1209 65.0875 36.7144 65.3333 37.3333 65.3333C37.9521 65.3333 38.5456 65.0875 38.9832 64.6499C39.4208 64.2123 39.6666 63.6188 39.6666 63V21C39.6666 20.3811 39.4208 19.7876 38.9832 19.35C38.5456 18.9125 37.9521 18.6666 37.3333 18.6666ZM60.6666 51.3333C60.0477 51.3333 59.4543 51.5791 59.0167 52.0167C58.5791 52.4543 58.3333 53.0478 58.3333 53.6666V63C58.3333 63.6188 58.5791 64.2123 59.0167 64.6499C59.4543 65.0875 60.0477 65.3333 60.6666 65.3333C61.2854 65.3333 61.8789 65.0875 62.3165 64.6499C62.7541 64.2123 62.9999 63.6188 62.9999 63V53.6666C62.9999 53.0478 62.7541 52.4543 62.3165 52.0167C61.8789 51.5791 61.2854 51.3333 60.6666 51.3333ZM48.9999 32.6666C48.3811 32.6666 47.7876 32.9125 47.35 33.35C46.9124 33.7876 46.6666 34.3811 46.6666 35V63C46.6666 63.6188 46.9124 64.2123 47.35 64.6499C47.7876 65.0875 48.3811 65.3333 48.9999 65.3333C49.6188 65.3333 50.2123 65.0875 50.6498 64.6499C51.0874 64.2123 51.3333 63.6188 51.3333 63V35C51.3333 34.3811 51.0874 33.7876 50.6498 33.35C50.2123 32.9125 49.6188 32.6666 48.9999 32.6666Z" fill="#12BF7C"/>
</g>
<defs>
<filter id="filter0_d_1_421" x="0" y="0" width="92" height="92" filterUnits="userSpaceOnUse" color-interpolation-filters="sRGB">
<feFlood flood-opacity="0" result="BackgroundImageFix"/>
<feColorMatrix in="SourceAlpha" type="matrix" values="0 0 0 0 0 0 0 0 0 0 0 0 0 0 0 0 0 0 127 0" result="hardAlpha"/>
<feOffset dx="4" dy="4"/>
<feGaussianBlur stdDeviation="5"/>
<feComposite in2="hardAlpha" operator="out"/>
<feColorMatrix type="matrix" values="0 0 0 0 0.858333 0 0 0 0 0.858333 0 0 0 0 0.858333 0 0 0 0.25 0"/>
<feBlend mode="normal" in2="BackgroundImageFix" result="effect1_dropShadow_1_421"/>
<feBlend mode="normal" in="SourceGraphic" in2="effect1_dropShadow_1_421" result="shape"/>
</filter>
</defs>
</svg>
